<mxfile host="app.diagrams.net" modified="2024-06-04T13:16:03.630Z" agent="Mozilla/5.0 (Windows NT 10.0; Win64; x64; rv:109.0) Gecko/20100101 Firefox/115.0" etag="uJujrvOMSJ304AX19GxB" version="24.4.13" type="device" pages="6">
  <diagram name="totale" id="a4EY4CyYpixlKWepXSNY">
    <mxGraphModel dx="2533" dy="1063" grid="1" gridSize="10" guides="1" tooltips="1" connect="1" arrows="1" fold="1" page="1" pageScale="1" pageWidth="827" pageHeight="1169" math="1" shadow="0">
      <root>
        <mxCell id="0" />
        <mxCell id="1" parent="0" />
        <mxCell id="uXI3b5zpEInN3ivMUAZo-10" value="" style="group" vertex="1" connectable="0" parent="1">
          <mxGeometry x="200" y="200" width="200" height="200" as="geometry" />
        </mxCell>
        <mxCell id="uXI3b5zpEInN3ivMUAZo-1" value="" style="rounded=1;whiteSpace=wrap;html=1;container=0;" vertex="1" parent="uXI3b5zpEInN3ivMUAZo-10">
          <mxGeometry width="200" height="200" as="geometry" />
        </mxCell>
        <mxCell id="uXI3b5zpEInN3ivMUAZo-2" value="&lt;div&gt;Estimation de la variance d&#39;un total -&lt;/div&gt;&lt;div&gt;Plan à un degré&lt;br&gt;&lt;/div&gt;" style="text;html=1;align=center;verticalAlign=middle;whiteSpace=wrap;rounded=0;container=0;" vertex="1" parent="uXI3b5zpEInN3ivMUAZo-10">
          <mxGeometry x="25" y="150" width="150" height="30" as="geometry" />
        </mxCell>
        <mxCell id="uXI3b5zpEInN3ivMUAZo-4" value="&lt;div style=&quot;font-size: 22px;&quot;&gt;$$\hat{\mathbb{V}}_&amp;nbsp; \text{HT}$$&lt;/div&gt;" style="text;html=1;align=center;verticalAlign=middle;whiteSpace=wrap;rounded=0;fontSize=22;container=0;" vertex="1" parent="uXI3b5zpEInN3ivMUAZo-10">
          <mxGeometry x="10" y="10" width="90" height="60" as="geometry" />
        </mxCell>
        <mxCell id="uXI3b5zpEInN3ivMUAZo-7" value="&lt;div style=&quot;font-size: 22px;&quot;&gt;$$\hat{\mathbb{V}}_&amp;nbsp; \text{SYG}$$&lt;/div&gt;" style="text;html=1;align=center;verticalAlign=middle;whiteSpace=wrap;rounded=0;fontSize=22;container=0;" vertex="1" parent="uXI3b5zpEInN3ivMUAZo-10">
          <mxGeometry x="90" y="40" width="90" height="60" as="geometry" />
        </mxCell>
        <mxCell id="uXI3b5zpEInN3ivMUAZo-8" value="&lt;div style=&quot;font-size: 22px;&quot;&gt;$$\hat{\mathbb{V}}_&amp;nbsp; \text{DT}$$&lt;/div&gt;" style="text;html=1;align=center;verticalAlign=middle;whiteSpace=wrap;rounded=0;fontSize=22;container=0;" vertex="1" parent="uXI3b5zpEInN3ivMUAZo-10">
          <mxGeometry x="20" y="80" width="90" height="60" as="geometry" />
        </mxCell>
        <mxCell id="uXI3b5zpEInN3ivMUAZo-15" value="" style="group;movable=1;resizable=1;rotatable=1;deletable=1;editable=1;locked=0;connectable=1;" vertex="1" connectable="0" parent="1">
          <mxGeometry x="840" y="240" width="200" height="160" as="geometry" />
        </mxCell>
        <mxCell id="uXI3b5zpEInN3ivMUAZo-11" value="" style="rounded=1;whiteSpace=wrap;html=1;movable=1;resizable=1;rotatable=1;deletable=1;editable=1;locked=0;connectable=1;" vertex="1" parent="uXI3b5zpEInN3ivMUAZo-15">
          <mxGeometry y="-40" width="200" height="200" as="geometry" />
        </mxCell>
        <mxCell id="uXI3b5zpEInN3ivMUAZo-12" value="&lt;div&gt;Estimation de la variance d&#39;un total -&lt;/div&gt;&lt;div&gt;Plan à plusieurs degrés&lt;br&gt;&lt;/div&gt;" style="text;html=1;align=center;verticalAlign=middle;whiteSpace=wrap;rounded=0;container=0;movable=1;resizable=1;rotatable=1;deletable=1;editable=1;locked=0;connectable=1;" vertex="1" parent="uXI3b5zpEInN3ivMUAZo-15">
          <mxGeometry x="22.5" y="100" width="155" height="48" as="geometry" />
        </mxCell>
        <mxCell id="uXI3b5zpEInN3ivMUAZo-43" value="$$\hat{\mathbb{V}}(\hat{t}_{y,\text{HT}}) = Q(\hat{u}_1, ..., \hat{u}_{n_\text{UP}}) + $$" style="text;html=1;align=center;verticalAlign=middle;whiteSpace=wrap;rounded=0;" vertex="1" parent="uXI3b5zpEInN3ivMUAZo-15">
          <mxGeometry x="70" width="60" height="30" as="geometry" />
        </mxCell>
        <mxCell id="uXI3b5zpEInN3ivMUAZo-45" value="$$\sum_{u} (\frac{1}{\pi_u^2} - q_u) \hat{\mathbb{V}}(\hat{t}_u) $$" style="text;html=1;align=center;verticalAlign=middle;whiteSpace=wrap;rounded=0;" vertex="1" parent="uXI3b5zpEInN3ivMUAZo-15">
          <mxGeometry x="70" y="45" width="60" height="30" as="geometry" />
        </mxCell>
        <mxCell id="uXI3b5zpEInN3ivMUAZo-23" value="" style="group;movable=1;resizable=1;rotatable=1;deletable=1;editable=1;locked=0;connectable=1;" vertex="1" connectable="0" parent="1">
          <mxGeometry x="520" y="270" width="200" height="130" as="geometry" />
        </mxCell>
        <mxCell id="uXI3b5zpEInN3ivMUAZo-24" value="" style="rounded=1;whiteSpace=wrap;html=1;movable=1;resizable=1;rotatable=1;deletable=1;editable=1;locked=0;connectable=1;" vertex="1" parent="uXI3b5zpEInN3ivMUAZo-23">
          <mxGeometry y="-70" width="200" height="200" as="geometry" />
        </mxCell>
        <mxCell id="uXI3b5zpEInN3ivMUAZo-25" value="&lt;div&gt;Estimation de la variance d&#39;une fonction d&#39;un total - Plan à un degré&lt;br&gt;&lt;/div&gt;" style="text;html=1;align=center;verticalAlign=middle;whiteSpace=wrap;rounded=0;container=0;movable=1;resizable=1;rotatable=1;deletable=1;editable=1;locked=0;connectable=1;" vertex="1" parent="uXI3b5zpEInN3ivMUAZo-23">
          <mxGeometry x="19.047619047619047" y="80" width="161.9047619047619" height="24" as="geometry" />
        </mxCell>
        <mxCell id="uXI3b5zpEInN3ivMUAZo-27" value="" style="rounded=1;whiteSpace=wrap;html=1;movable=1;resizable=1;rotatable=1;deletable=1;editable=1;locked=0;connectable=1;" vertex="1" parent="1">
          <mxGeometry x="-440" y="200" width="200" height="200" as="geometry" />
        </mxCell>
        <mxCell id="uXI3b5zpEInN3ivMUAZo-26" value="" style="group;movable=1;resizable=1;rotatable=1;deletable=1;editable=1;locked=0;connectable=1;" vertex="1" connectable="0" parent="1">
          <mxGeometry x="-420" y="330" width="160" height="80" as="geometry" />
        </mxCell>
        <mxCell id="uXI3b5zpEInN3ivMUAZo-28" value="Estimation de la variance d&#39;un total calé - Plan à un degré" style="text;html=1;align=center;verticalAlign=middle;whiteSpace=wrap;rounded=0;container=0;movable=1;resizable=1;rotatable=1;deletable=1;editable=1;locked=0;connectable=1;" vertex="1" parent="uXI3b5zpEInN3ivMUAZo-26">
          <mxGeometry x="11.33" y="28" width="146.67" height="24" as="geometry" />
        </mxCell>
        <mxCell id="uXI3b5zpEInN3ivMUAZo-30" value="" style="group;movable=1;resizable=1;rotatable=1;deletable=1;editable=1;locked=0;connectable=1;" vertex="1" connectable="0" parent="1">
          <mxGeometry x="-120" y="270" width="200" height="130" as="geometry" />
        </mxCell>
        <mxCell id="uXI3b5zpEInN3ivMUAZo-31" value="" style="rounded=1;whiteSpace=wrap;html=1;movable=1;resizable=1;rotatable=1;deletable=1;editable=1;locked=0;connectable=1;" vertex="1" parent="uXI3b5zpEInN3ivMUAZo-30">
          <mxGeometry y="-70" width="200" height="200" as="geometry" />
        </mxCell>
        <mxCell id="uXI3b5zpEInN3ivMUAZo-32" value="&lt;div&gt;Estimation de la variance d&#39;une fonction d&#39;un total - Plan indirect&lt;br&gt;&lt;/div&gt;" style="text;html=1;align=center;verticalAlign=middle;whiteSpace=wrap;rounded=0;container=0;movable=1;resizable=1;rotatable=1;deletable=1;editable=1;locked=0;connectable=1;" vertex="1" parent="uXI3b5zpEInN3ivMUAZo-30">
          <mxGeometry x="19.047619047619047" y="90" width="161.9047619047619" height="24" as="geometry" />
        </mxCell>
        <mxCell id="uXI3b5zpEInN3ivMUAZo-47" value="$$\hat{\mathbb{V}}(\underbrace{\hat{t}_{y,\text{HT}}}_{\text{Pop. fille}}) \approx \hat{\mathbb{V}}(\underbrace{\hat{t}_{z,\text{HT}}}_{\text{Pop. mère}})$$" style="text;html=1;align=center;verticalAlign=middle;whiteSpace=wrap;rounded=0;fontSize=15;" vertex="1" parent="uXI3b5zpEInN3ivMUAZo-30">
          <mxGeometry x="20" y="-60" width="160.95" height="100" as="geometry" />
        </mxCell>
        <mxCell id="uXI3b5zpEInN3ivMUAZo-33" value="" style="endArrow=classic;html=1;rounded=0;exitX=1;exitY=0.5;exitDx=0;exitDy=0;entryX=0;entryY=0.5;entryDx=0;entryDy=0;dashed=1;dashPattern=8 8;" edge="1" parent="1" source="uXI3b5zpEInN3ivMUAZo-1" target="uXI3b5zpEInN3ivMUAZo-24">
          <mxGeometry width="50" height="50" relative="1" as="geometry">
            <mxPoint x="260" y="260" as="sourcePoint" />
            <mxPoint x="310" y="210" as="targetPoint" />
          </mxGeometry>
        </mxCell>
        <mxCell id="uXI3b5zpEInN3ivMUAZo-34" value="" style="endArrow=classic;html=1;rounded=0;exitX=0;exitY=0.5;exitDx=0;exitDy=0;entryX=1;entryY=0.5;entryDx=0;entryDy=0;dashed=1;dashPattern=8 8;" edge="1" parent="1" source="uXI3b5zpEInN3ivMUAZo-1" target="uXI3b5zpEInN3ivMUAZo-31">
          <mxGeometry width="50" height="50" relative="1" as="geometry">
            <mxPoint x="410" y="310" as="sourcePoint" />
            <mxPoint x="490" y="310" as="targetPoint" />
          </mxGeometry>
        </mxCell>
        <mxCell id="uXI3b5zpEInN3ivMUAZo-36" style="edgeStyle=orthogonalEdgeStyle;rounded=0;orthogonalLoop=1;jettySize=auto;html=1;entryX=1;entryY=0.5;entryDx=0;entryDy=0;dashed=1;dashPattern=8 8;" edge="1" parent="1" target="uXI3b5zpEInN3ivMUAZo-27">
          <mxGeometry relative="1" as="geometry">
            <mxPoint x="300" y="200" as="sourcePoint" />
            <Array as="points">
              <mxPoint x="300" y="160" />
              <mxPoint x="-200" y="160" />
              <mxPoint x="-200" y="300" />
            </Array>
          </mxGeometry>
        </mxCell>
        <mxCell id="uXI3b5zpEInN3ivMUAZo-37" value="Formule de Rao" style="text;html=1;align=center;verticalAlign=middle;whiteSpace=wrap;rounded=0;rotation=0;" vertex="1" parent="1">
          <mxGeometry x="490" y="130" width="100" height="30" as="geometry" />
        </mxCell>
        <mxCell id="uXI3b5zpEInN3ivMUAZo-38" value="&lt;div&gt;Transformation&lt;br&gt;&lt;/div&gt;" style="text;html=1;align=center;verticalAlign=middle;whiteSpace=wrap;rounded=0;" vertex="1" parent="1">
          <mxGeometry x="110" y="270" width="60" height="30" as="geometry" />
        </mxCell>
        <mxCell id="uXI3b5zpEInN3ivMUAZo-39" value="de la var d&#39;intérêt" style="text;html=1;align=center;verticalAlign=middle;whiteSpace=wrap;rounded=0;" vertex="1" parent="1">
          <mxGeometry x="110" y="300" width="60" height="30" as="geometry" />
        </mxCell>
        <mxCell id="uXI3b5zpEInN3ivMUAZo-41" value="Résidus de la régression" style="text;html=1;align=center;verticalAlign=middle;whiteSpace=wrap;rounded=0;direction=south;rotation=0;" vertex="1" parent="1">
          <mxGeometry x="-10" y="130" width="190" height="30" as="geometry" />
        </mxCell>
        <mxCell id="uXI3b5zpEInN3ivMUAZo-46" value="$$\hat{\mathbb{V}}(f(\hat{t}_{y,\text{HT}})) \approx \hat{\mathbb{V}}(\hat{t}_{u,\text{HT}})$$" style="text;html=1;align=center;verticalAlign=middle;whiteSpace=wrap;rounded=0;fontSize=15;" vertex="1" parent="1">
          <mxGeometry x="-420.00000000000006" y="230" width="160.95" height="100" as="geometry" />
        </mxCell>
        <mxCell id="uXI3b5zpEInN3ivMUAZo-42" value="$$\hat{\mathbb{V}}(f(\hat{t}_{y,\text{HT}})) \approx \hat{\mathbb{V}}(\hat{t}_{u,\text{HT}})$$" style="text;html=1;align=center;verticalAlign=middle;whiteSpace=wrap;rounded=0;fontSize=15;" vertex="1" parent="1">
          <mxGeometry x="540" y="220" width="160.95" height="100" as="geometry" />
        </mxCell>
        <mxCell id="uXI3b5zpEInN3ivMUAZo-48" value="Linéarisation" style="text;html=1;align=center;verticalAlign=middle;whiteSpace=wrap;rounded=0;" vertex="1" parent="1">
          <mxGeometry x="400" y="270" width="120" height="30" as="geometry" />
        </mxCell>
        <mxCell id="8Hdn9U7c_6WUIMLrUHyl-4" value="" style="endArrow=classic;html=1;rounded=0;exitX=0.5;exitY=0;exitDx=0;exitDy=0;entryX=0;entryY=0.5;entryDx=0;entryDy=0;dashed=1;dashPattern=8 8;" edge="1" parent="1" source="uXI3b5zpEInN3ivMUAZo-1" target="uXI3b5zpEInN3ivMUAZo-11">
          <mxGeometry width="50" height="50" relative="1" as="geometry">
            <mxPoint x="610" y="250" as="sourcePoint" />
            <mxPoint x="660" y="200" as="targetPoint" />
            <Array as="points">
              <mxPoint x="300" y="160" />
              <mxPoint x="800" y="160" />
              <mxPoint x="800" y="300" />
            </Array>
          </mxGeometry>
        </mxCell>
      </root>
    </mxGraphModel>
  </diagram>
  <diagram name="resume0" id="aOhDJwc5rHgQf0Oc7UL3">
    <mxGraphModel dx="2021" dy="744" grid="1" gridSize="10" guides="1" tooltips="1" connect="1" arrows="1" fold="1" page="1" pageScale="1" pageWidth="827" pageHeight="1169" math="1" shadow="0">
      <root>
        <mxCell id="PPjGaNvOKwlbTJ2URJ_K-0" />
        <mxCell id="PPjGaNvOKwlbTJ2URJ_K-1" parent="PPjGaNvOKwlbTJ2URJ_K-0" />
        <mxCell id="PPjGaNvOKwlbTJ2URJ_K-2" value="" style="group" vertex="1" connectable="0" parent="PPjGaNvOKwlbTJ2URJ_K-1">
          <mxGeometry x="200" y="200" width="200" height="200" as="geometry" />
        </mxCell>
        <mxCell id="PPjGaNvOKwlbTJ2URJ_K-3" value="" style="rounded=1;whiteSpace=wrap;html=1;container=0;" vertex="1" parent="PPjGaNvOKwlbTJ2URJ_K-2">
          <mxGeometry width="200" height="200" as="geometry" />
        </mxCell>
        <mxCell id="PPjGaNvOKwlbTJ2URJ_K-4" value="&lt;div&gt;Estimation de la variance d&#39;un total -&lt;/div&gt;&lt;div&gt;Plan à un degré&lt;br&gt;&lt;/div&gt;" style="text;html=1;align=center;verticalAlign=middle;whiteSpace=wrap;rounded=0;container=0;" vertex="1" parent="PPjGaNvOKwlbTJ2URJ_K-2">
          <mxGeometry x="25" y="150" width="150" height="30" as="geometry" />
        </mxCell>
        <mxCell id="PPjGaNvOKwlbTJ2URJ_K-5" value="&lt;div style=&quot;font-size: 22px;&quot;&gt;$$\hat{\mathbb{V}}_&amp;nbsp; \text{HT}$$&lt;/div&gt;" style="text;html=1;align=center;verticalAlign=middle;whiteSpace=wrap;rounded=0;fontSize=22;container=0;" vertex="1" parent="PPjGaNvOKwlbTJ2URJ_K-2">
          <mxGeometry x="10" y="10" width="90" height="60" as="geometry" />
        </mxCell>
        <mxCell id="PPjGaNvOKwlbTJ2URJ_K-6" value="&lt;div style=&quot;font-size: 22px;&quot;&gt;$$\hat{\mathbb{V}}_&amp;nbsp; \text{SYG}$$&lt;/div&gt;" style="text;html=1;align=center;verticalAlign=middle;whiteSpace=wrap;rounded=0;fontSize=22;container=0;" vertex="1" parent="PPjGaNvOKwlbTJ2URJ_K-2">
          <mxGeometry x="90" y="40" width="90" height="60" as="geometry" />
        </mxCell>
        <mxCell id="PPjGaNvOKwlbTJ2URJ_K-7" value="&lt;div style=&quot;font-size: 22px;&quot;&gt;$$\hat{\mathbb{V}}_&amp;nbsp; \text{DT}$$&lt;/div&gt;" style="text;html=1;align=center;verticalAlign=middle;whiteSpace=wrap;rounded=0;fontSize=22;container=0;" vertex="1" parent="PPjGaNvOKwlbTJ2URJ_K-2">
          <mxGeometry x="20" y="80" width="90" height="60" as="geometry" />
        </mxCell>
        <mxCell id="PPjGaNvOKwlbTJ2URJ_K-8" value="" style="group;movable=1;resizable=1;rotatable=1;deletable=1;editable=1;locked=0;connectable=1;" vertex="1" connectable="0" parent="PPjGaNvOKwlbTJ2URJ_K-1">
          <mxGeometry x="840" y="240" width="200" height="160" as="geometry" />
        </mxCell>
        <mxCell id="PPjGaNvOKwlbTJ2URJ_K-9" value="" style="rounded=1;whiteSpace=wrap;html=1;movable=1;resizable=1;rotatable=1;deletable=1;editable=1;locked=0;connectable=1;" vertex="1" parent="PPjGaNvOKwlbTJ2URJ_K-8">
          <mxGeometry y="-40" width="200" height="200" as="geometry" />
        </mxCell>
        <mxCell id="PPjGaNvOKwlbTJ2URJ_K-10" value="&lt;div&gt;Estimation de la variance d&#39;un total -&lt;/div&gt;&lt;div&gt;Plan à plusieurs degrés&lt;br&gt;&lt;/div&gt;" style="text;html=1;align=center;verticalAlign=middle;whiteSpace=wrap;rounded=0;container=0;movable=1;resizable=1;rotatable=1;deletable=1;editable=1;locked=0;connectable=1;textOpacity=20;" vertex="1" parent="PPjGaNvOKwlbTJ2URJ_K-8">
          <mxGeometry x="22.5" y="100" width="155" height="48" as="geometry" />
        </mxCell>
        <mxCell id="PPjGaNvOKwlbTJ2URJ_K-11" value="$$\hat{\mathbb{V}}(\hat{t}_{y,\text{HT}}) = Q(\hat{u}_1, ..., \hat{u}_{n_\text{UP}}) + $$" style="text;html=1;align=center;verticalAlign=middle;whiteSpace=wrap;rounded=0;textOpacity=20;" vertex="1" parent="PPjGaNvOKwlbTJ2URJ_K-8">
          <mxGeometry x="70" width="60" height="30" as="geometry" />
        </mxCell>
        <mxCell id="PPjGaNvOKwlbTJ2URJ_K-12" value="$$\sum_{u} (\frac{1}{\pi_u^2} - q_u) \hat{\mathbb{V}}(\hat{t}_u) $$" style="text;html=1;align=center;verticalAlign=middle;whiteSpace=wrap;rounded=0;textOpacity=20;" vertex="1" parent="PPjGaNvOKwlbTJ2URJ_K-8">
          <mxGeometry x="70" y="45" width="60" height="30" as="geometry" />
        </mxCell>
        <mxCell id="PPjGaNvOKwlbTJ2URJ_K-13" value="" style="group;movable=1;resizable=1;rotatable=1;deletable=1;editable=1;locked=0;connectable=1;textOpacity=20;" vertex="1" connectable="0" parent="PPjGaNvOKwlbTJ2URJ_K-1">
          <mxGeometry x="-120" y="270" width="200" height="130" as="geometry" />
        </mxCell>
        <mxCell id="PPjGaNvOKwlbTJ2URJ_K-14" value="" style="rounded=1;whiteSpace=wrap;html=1;movable=1;resizable=1;rotatable=1;deletable=1;editable=1;locked=0;connectable=1;" vertex="1" parent="PPjGaNvOKwlbTJ2URJ_K-13">
          <mxGeometry y="-70" width="200" height="200" as="geometry" />
        </mxCell>
        <mxCell id="PPjGaNvOKwlbTJ2URJ_K-15" value="&lt;div&gt;Estimation de la variance d&#39;une fonction d&#39;un total - Plan indirect&lt;br&gt;&lt;/div&gt;" style="text;html=1;align=center;verticalAlign=middle;whiteSpace=wrap;rounded=0;container=0;movable=1;resizable=1;rotatable=1;deletable=1;editable=1;locked=0;connectable=1;textOpacity=20;" vertex="1" parent="PPjGaNvOKwlbTJ2URJ_K-13">
          <mxGeometry x="19.047619047619047" y="90" width="161.9047619047619" height="24" as="geometry" />
        </mxCell>
        <mxCell id="PPjGaNvOKwlbTJ2URJ_K-16" value="$$\hat{\mathbb{V}}(\underbrace{\hat{t}_{y,\text{HT}}}_{\text{Pop. fille}}) \approx \hat{\mathbb{V}}(\underbrace{\hat{t}_{z,\text{HT}}}_{\text{Pop. mère}})$$" style="text;html=1;align=center;verticalAlign=middle;whiteSpace=wrap;rounded=0;fontSize=15;textOpacity=20;" vertex="1" parent="PPjGaNvOKwlbTJ2URJ_K-13">
          <mxGeometry x="20" y="-60" width="160.95" height="100" as="geometry" />
        </mxCell>
        <mxCell id="PPjGaNvOKwlbTJ2URJ_K-17" value="" style="endArrow=classic;html=1;rounded=0;exitX=1;exitY=0.5;exitDx=0;exitDy=0;entryX=0;entryY=0.5;entryDx=0;entryDy=0;dashed=1;dashPattern=8 8;textOpacity=30;opacity=20;" edge="1" parent="PPjGaNvOKwlbTJ2URJ_K-1" source="PPjGaNvOKwlbTJ2URJ_K-3" target="PPjGaNvOKwlbTJ2URJ_K-25">
          <mxGeometry width="50" height="50" relative="1" as="geometry">
            <mxPoint x="260" y="260" as="sourcePoint" />
            <mxPoint x="310" y="210" as="targetPoint" />
          </mxGeometry>
        </mxCell>
        <mxCell id="PPjGaNvOKwlbTJ2URJ_K-18" value="" style="endArrow=classic;html=1;rounded=0;exitX=0;exitY=0.5;exitDx=0;exitDy=0;entryX=1;entryY=0.5;entryDx=0;entryDy=0;dashed=1;dashPattern=8 8;opacity=20;" edge="1" parent="PPjGaNvOKwlbTJ2URJ_K-1" source="PPjGaNvOKwlbTJ2URJ_K-3" target="PPjGaNvOKwlbTJ2URJ_K-14">
          <mxGeometry width="50" height="50" relative="1" as="geometry">
            <mxPoint x="410" y="310" as="sourcePoint" />
            <mxPoint x="490" y="310" as="targetPoint" />
          </mxGeometry>
        </mxCell>
        <mxCell id="PPjGaNvOKwlbTJ2URJ_K-19" value="Formule de Rao" style="text;html=1;align=center;verticalAlign=middle;whiteSpace=wrap;rounded=0;rotation=0;textOpacity=20;" vertex="1" parent="PPjGaNvOKwlbTJ2URJ_K-1">
          <mxGeometry x="490" y="130" width="100" height="30" as="geometry" />
        </mxCell>
        <mxCell id="PPjGaNvOKwlbTJ2URJ_K-20" value="&lt;div&gt;Transformation&lt;br&gt;&lt;/div&gt;" style="text;html=1;align=center;verticalAlign=middle;whiteSpace=wrap;rounded=0;textOpacity=20;" vertex="1" parent="PPjGaNvOKwlbTJ2URJ_K-1">
          <mxGeometry x="110" y="270" width="60" height="30" as="geometry" />
        </mxCell>
        <mxCell id="PPjGaNvOKwlbTJ2URJ_K-21" value="de la var d&#39;intérêt" style="text;html=1;align=center;verticalAlign=middle;whiteSpace=wrap;rounded=0;textOpacity=20;" vertex="1" parent="PPjGaNvOKwlbTJ2URJ_K-1">
          <mxGeometry x="110" y="300" width="60" height="30" as="geometry" />
        </mxCell>
        <mxCell id="PPjGaNvOKwlbTJ2URJ_K-22" value="" style="endArrow=classic;html=1;rounded=0;exitX=0.5;exitY=0;exitDx=0;exitDy=0;entryX=0;entryY=0.5;entryDx=0;entryDy=0;dashed=1;dashPattern=8 8;textOpacity=20;opacity=20;" edge="1" parent="PPjGaNvOKwlbTJ2URJ_K-1" source="PPjGaNvOKwlbTJ2URJ_K-3" target="PPjGaNvOKwlbTJ2URJ_K-9">
          <mxGeometry width="50" height="50" relative="1" as="geometry">
            <mxPoint x="610" y="250" as="sourcePoint" />
            <mxPoint x="660" y="200" as="targetPoint" />
            <Array as="points">
              <mxPoint x="300" y="160" />
              <mxPoint x="800" y="160" />
              <mxPoint x="800" y="300" />
            </Array>
          </mxGeometry>
        </mxCell>
        <mxCell id="PPjGaNvOKwlbTJ2URJ_K-23" value="" style="group;" vertex="1" connectable="0" parent="PPjGaNvOKwlbTJ2URJ_K-1">
          <mxGeometry x="400" y="220" width="320" height="180" as="geometry" />
        </mxCell>
        <mxCell id="PPjGaNvOKwlbTJ2URJ_K-24" value="" style="group;movable=1;resizable=1;rotatable=1;deletable=1;editable=1;locked=0;connectable=1;textOpacity=20;" vertex="1" connectable="0" parent="PPjGaNvOKwlbTJ2URJ_K-23">
          <mxGeometry x="120" y="50" width="200" height="130" as="geometry" />
        </mxCell>
        <mxCell id="PPjGaNvOKwlbTJ2URJ_K-25" value="" style="rounded=1;whiteSpace=wrap;html=1;movable=1;resizable=1;rotatable=1;deletable=1;editable=1;locked=0;connectable=1;textOpacity=20;" vertex="1" parent="PPjGaNvOKwlbTJ2URJ_K-24">
          <mxGeometry y="-70" width="200" height="200" as="geometry" />
        </mxCell>
        <mxCell id="PPjGaNvOKwlbTJ2URJ_K-26" value="&lt;div&gt;Estimation de la variance d&#39;une fonction d&#39;un total - Plan à un degré&lt;br&gt;&lt;/div&gt;" style="text;html=1;align=center;verticalAlign=middle;whiteSpace=wrap;rounded=0;container=0;movable=1;resizable=1;rotatable=1;deletable=1;editable=1;locked=0;connectable=1;textOpacity=20;" vertex="1" parent="PPjGaNvOKwlbTJ2URJ_K-24">
          <mxGeometry x="19.047619047619047" y="80" width="161.9047619047619" height="24" as="geometry" />
        </mxCell>
        <mxCell id="PPjGaNvOKwlbTJ2URJ_K-27" value="$$\hat{\mathbb{V}}(f(\hat{t}_{y,\text{HT}})) \approx \hat{\mathbb{V}}(\hat{t}_{u,\text{HT}})$$" style="text;html=1;align=center;verticalAlign=middle;whiteSpace=wrap;rounded=0;fontSize=15;textOpacity=20;" vertex="1" parent="PPjGaNvOKwlbTJ2URJ_K-23">
          <mxGeometry x="140" width="160.95" height="100" as="geometry" />
        </mxCell>
        <mxCell id="PPjGaNvOKwlbTJ2URJ_K-28" value="Linéarisation" style="text;html=1;align=center;verticalAlign=middle;whiteSpace=wrap;rounded=0;textOpacity=20;opacity=30;" vertex="1" parent="PPjGaNvOKwlbTJ2URJ_K-23">
          <mxGeometry y="50" width="120" height="30" as="geometry" />
        </mxCell>
        <mxCell id="PPjGaNvOKwlbTJ2URJ_K-29" value="" style="group;textOpacity=10;" vertex="1" connectable="0" parent="PPjGaNvOKwlbTJ2URJ_K-1">
          <mxGeometry x="-440" y="130" width="740" height="280" as="geometry" />
        </mxCell>
        <mxCell id="PPjGaNvOKwlbTJ2URJ_K-30" value="" style="rounded=1;whiteSpace=wrap;html=1;movable=1;resizable=1;rotatable=1;deletable=1;editable=1;locked=0;connectable=1;textOpacity=20;" vertex="1" parent="PPjGaNvOKwlbTJ2URJ_K-29">
          <mxGeometry y="70" width="200" height="200" as="geometry" />
        </mxCell>
        <mxCell id="PPjGaNvOKwlbTJ2URJ_K-31" value="" style="group;movable=1;resizable=1;rotatable=1;deletable=1;editable=1;locked=0;connectable=1;textOpacity=20;" vertex="1" connectable="0" parent="PPjGaNvOKwlbTJ2URJ_K-29">
          <mxGeometry x="20" y="200" width="160" height="80" as="geometry" />
        </mxCell>
        <mxCell id="PPjGaNvOKwlbTJ2URJ_K-32" value="Estimation de la variance d&#39;un total calé - Plan à un degré" style="text;html=1;align=center;verticalAlign=middle;whiteSpace=wrap;rounded=0;container=0;movable=1;resizable=1;rotatable=1;deletable=1;editable=1;locked=0;connectable=1;textOpacity=20;" vertex="1" parent="PPjGaNvOKwlbTJ2URJ_K-31">
          <mxGeometry x="11.33" y="28" width="146.67" height="24" as="geometry" />
        </mxCell>
        <mxCell id="PPjGaNvOKwlbTJ2URJ_K-33" style="edgeStyle=orthogonalEdgeStyle;rounded=0;orthogonalLoop=1;jettySize=auto;html=1;entryX=1;entryY=0.5;entryDx=0;entryDy=0;dashed=1;dashPattern=8 8;opacity=20;" edge="1" parent="PPjGaNvOKwlbTJ2URJ_K-29" target="PPjGaNvOKwlbTJ2URJ_K-30">
          <mxGeometry relative="1" as="geometry">
            <mxPoint x="740" y="70" as="sourcePoint" />
            <Array as="points">
              <mxPoint x="740" y="30" />
              <mxPoint x="240" y="30" />
              <mxPoint x="240" y="170" />
            </Array>
          </mxGeometry>
        </mxCell>
        <mxCell id="PPjGaNvOKwlbTJ2URJ_K-34" value="Résidus de la régression" style="text;html=1;align=center;verticalAlign=middle;whiteSpace=wrap;rounded=0;direction=south;rotation=0;textOpacity=20;" vertex="1" parent="PPjGaNvOKwlbTJ2URJ_K-29">
          <mxGeometry x="430" width="190" height="30" as="geometry" />
        </mxCell>
        <mxCell id="PPjGaNvOKwlbTJ2URJ_K-35" value="$$\hat{\mathbb{V}}(f(\hat{t}_{y,\text{HT}})) \approx \hat{\mathbb{V}}(\hat{t}_{u,\text{HT}})$$" style="text;html=1;align=center;verticalAlign=middle;whiteSpace=wrap;rounded=0;fontSize=15;textOpacity=20;" vertex="1" parent="PPjGaNvOKwlbTJ2URJ_K-29">
          <mxGeometry x="19.999999999999943" y="100" width="160.95" height="100" as="geometry" />
        </mxCell>
      </root>
    </mxGraphModel>
  </diagram>
  <diagram name="resume1" id="7IntQXb0gFbYEOwudjY6">
    <mxGraphModel dx="2533" dy="1063" grid="1" gridSize="10" guides="1" tooltips="1" connect="1" arrows="1" fold="1" page="1" pageScale="1" pageWidth="827" pageHeight="1169" math="1" shadow="0">
      <root>
        <mxCell id="b54lAwSGRk71u41ndYf9-0" />
        <mxCell id="b54lAwSGRk71u41ndYf9-1" parent="b54lAwSGRk71u41ndYf9-0" />
        <mxCell id="b54lAwSGRk71u41ndYf9-2" value="" style="group" vertex="1" connectable="0" parent="b54lAwSGRk71u41ndYf9-1">
          <mxGeometry x="200" y="200" width="200" height="200" as="geometry" />
        </mxCell>
        <mxCell id="b54lAwSGRk71u41ndYf9-3" value="" style="rounded=1;whiteSpace=wrap;html=1;container=0;" vertex="1" parent="b54lAwSGRk71u41ndYf9-2">
          <mxGeometry width="200" height="200" as="geometry" />
        </mxCell>
        <mxCell id="b54lAwSGRk71u41ndYf9-4" value="&lt;div&gt;Estimation de la variance d&#39;un total -&lt;/div&gt;&lt;div&gt;Plan à un degré&lt;br&gt;&lt;/div&gt;" style="text;html=1;align=center;verticalAlign=middle;whiteSpace=wrap;rounded=0;container=0;" vertex="1" parent="b54lAwSGRk71u41ndYf9-2">
          <mxGeometry x="25" y="150" width="150" height="30" as="geometry" />
        </mxCell>
        <mxCell id="b54lAwSGRk71u41ndYf9-5" value="&lt;div style=&quot;font-size: 22px;&quot;&gt;$$\hat{\mathbb{V}}_&amp;nbsp; \text{HT}$$&lt;/div&gt;" style="text;html=1;align=center;verticalAlign=middle;whiteSpace=wrap;rounded=0;fontSize=22;container=0;" vertex="1" parent="b54lAwSGRk71u41ndYf9-2">
          <mxGeometry x="10" y="10" width="90" height="60" as="geometry" />
        </mxCell>
        <mxCell id="b54lAwSGRk71u41ndYf9-6" value="&lt;div style=&quot;font-size: 22px;&quot;&gt;$$\hat{\mathbb{V}}_&amp;nbsp; \text{SYG}$$&lt;/div&gt;" style="text;html=1;align=center;verticalAlign=middle;whiteSpace=wrap;rounded=0;fontSize=22;container=0;" vertex="1" parent="b54lAwSGRk71u41ndYf9-2">
          <mxGeometry x="90" y="40" width="90" height="60" as="geometry" />
        </mxCell>
        <mxCell id="b54lAwSGRk71u41ndYf9-7" value="&lt;div style=&quot;font-size: 22px;&quot;&gt;$$\hat{\mathbb{V}}_&amp;nbsp; \text{DT}$$&lt;/div&gt;" style="text;html=1;align=center;verticalAlign=middle;whiteSpace=wrap;rounded=0;fontSize=22;container=0;" vertex="1" parent="b54lAwSGRk71u41ndYf9-2">
          <mxGeometry x="20" y="80" width="90" height="60" as="geometry" />
        </mxCell>
        <mxCell id="b54lAwSGRk71u41ndYf9-8" value="" style="group;movable=1;resizable=1;rotatable=1;deletable=1;editable=1;locked=0;connectable=1;" vertex="1" connectable="0" parent="b54lAwSGRk71u41ndYf9-1">
          <mxGeometry x="840" y="240" width="200" height="160" as="geometry" />
        </mxCell>
        <mxCell id="b54lAwSGRk71u41ndYf9-9" value="" style="rounded=1;whiteSpace=wrap;html=1;movable=1;resizable=1;rotatable=1;deletable=1;editable=1;locked=0;connectable=1;" vertex="1" parent="b54lAwSGRk71u41ndYf9-8">
          <mxGeometry y="-40" width="200" height="200" as="geometry" />
        </mxCell>
        <mxCell id="b54lAwSGRk71u41ndYf9-10" value="&lt;div&gt;Estimation de la variance d&#39;un total -&lt;/div&gt;&lt;div&gt;Plan à plusieurs degrés&lt;br&gt;&lt;/div&gt;" style="text;html=1;align=center;verticalAlign=middle;whiteSpace=wrap;rounded=0;container=0;movable=1;resizable=1;rotatable=1;deletable=1;editable=1;locked=0;connectable=1;" vertex="1" parent="b54lAwSGRk71u41ndYf9-8">
          <mxGeometry x="22.5" y="100" width="155" height="48" as="geometry" />
        </mxCell>
        <mxCell id="b54lAwSGRk71u41ndYf9-11" value="$$\hat{\mathbb{V}}(\hat{t}_{y,\text{HT}}) = Q(\hat{u}_1, ..., \hat{u}_{n_\text{UP}}) + $$" style="text;html=1;align=center;verticalAlign=middle;whiteSpace=wrap;rounded=0;" vertex="1" parent="b54lAwSGRk71u41ndYf9-8">
          <mxGeometry x="70" width="60" height="30" as="geometry" />
        </mxCell>
        <mxCell id="b54lAwSGRk71u41ndYf9-12" value="$$\sum_{u} (\frac{1}{\pi_u^2} - q_u) \hat{\mathbb{V}}(\hat{t}_u) $$" style="text;html=1;align=center;verticalAlign=middle;whiteSpace=wrap;rounded=0;" vertex="1" parent="b54lAwSGRk71u41ndYf9-8">
          <mxGeometry x="70" y="45" width="60" height="30" as="geometry" />
        </mxCell>
        <mxCell id="b54lAwSGRk71u41ndYf9-19" value="" style="group;movable=1;resizable=1;rotatable=1;deletable=1;editable=1;locked=0;connectable=1;textOpacity=20;" vertex="1" connectable="0" parent="b54lAwSGRk71u41ndYf9-1">
          <mxGeometry x="-120" y="270" width="200" height="130" as="geometry" />
        </mxCell>
        <mxCell id="b54lAwSGRk71u41ndYf9-20" value="" style="rounded=1;whiteSpace=wrap;html=1;movable=1;resizable=1;rotatable=1;deletable=1;editable=1;locked=0;connectable=1;" vertex="1" parent="b54lAwSGRk71u41ndYf9-19">
          <mxGeometry y="-70" width="200" height="200" as="geometry" />
        </mxCell>
        <mxCell id="b54lAwSGRk71u41ndYf9-21" value="&lt;div&gt;Estimation de la variance d&#39;une fonction d&#39;un total - Plan indirect&lt;br&gt;&lt;/div&gt;" style="text;html=1;align=center;verticalAlign=middle;whiteSpace=wrap;rounded=0;container=0;movable=1;resizable=1;rotatable=1;deletable=1;editable=1;locked=0;connectable=1;textOpacity=20;" vertex="1" parent="b54lAwSGRk71u41ndYf9-19">
          <mxGeometry x="19.047619047619047" y="90" width="161.9047619047619" height="24" as="geometry" />
        </mxCell>
        <mxCell id="b54lAwSGRk71u41ndYf9-22" value="$$\hat{\mathbb{V}}(\underbrace{\hat{t}_{y,\text{HT}}}_{\text{Pop. fille}}) \approx \hat{\mathbb{V}}(\underbrace{\hat{t}_{z,\text{HT}}}_{\text{Pop. mère}})$$" style="text;html=1;align=center;verticalAlign=middle;whiteSpace=wrap;rounded=0;fontSize=15;textOpacity=20;" vertex="1" parent="b54lAwSGRk71u41ndYf9-19">
          <mxGeometry x="20" y="-60" width="160.95" height="100" as="geometry" />
        </mxCell>
        <mxCell id="b54lAwSGRk71u41ndYf9-23" value="" style="endArrow=classic;html=1;rounded=0;exitX=1;exitY=0.5;exitDx=0;exitDy=0;entryX=0;entryY=0.5;entryDx=0;entryDy=0;dashed=1;dashPattern=8 8;textOpacity=30;opacity=20;" edge="1" parent="b54lAwSGRk71u41ndYf9-1" source="b54lAwSGRk71u41ndYf9-3" target="b54lAwSGRk71u41ndYf9-14">
          <mxGeometry width="50" height="50" relative="1" as="geometry">
            <mxPoint x="260" y="260" as="sourcePoint" />
            <mxPoint x="310" y="210" as="targetPoint" />
          </mxGeometry>
        </mxCell>
        <mxCell id="b54lAwSGRk71u41ndYf9-24" value="" style="endArrow=classic;html=1;rounded=0;exitX=0;exitY=0.5;exitDx=0;exitDy=0;entryX=1;entryY=0.5;entryDx=0;entryDy=0;dashed=1;dashPattern=8 8;opacity=20;" edge="1" parent="b54lAwSGRk71u41ndYf9-1" source="b54lAwSGRk71u41ndYf9-3" target="b54lAwSGRk71u41ndYf9-20">
          <mxGeometry width="50" height="50" relative="1" as="geometry">
            <mxPoint x="410" y="310" as="sourcePoint" />
            <mxPoint x="490" y="310" as="targetPoint" />
          </mxGeometry>
        </mxCell>
        <mxCell id="b54lAwSGRk71u41ndYf9-26" value="Formule de Rao" style="text;html=1;align=center;verticalAlign=middle;whiteSpace=wrap;rounded=0;rotation=0;" vertex="1" parent="b54lAwSGRk71u41ndYf9-1">
          <mxGeometry x="490" y="130" width="100" height="30" as="geometry" />
        </mxCell>
        <mxCell id="b54lAwSGRk71u41ndYf9-27" value="&lt;div&gt;Transformation&lt;br&gt;&lt;/div&gt;" style="text;html=1;align=center;verticalAlign=middle;whiteSpace=wrap;rounded=0;textOpacity=20;" vertex="1" parent="b54lAwSGRk71u41ndYf9-1">
          <mxGeometry x="110" y="270" width="60" height="30" as="geometry" />
        </mxCell>
        <mxCell id="b54lAwSGRk71u41ndYf9-28" value="de la var d&#39;intérêt" style="text;html=1;align=center;verticalAlign=middle;whiteSpace=wrap;rounded=0;textOpacity=20;" vertex="1" parent="b54lAwSGRk71u41ndYf9-1">
          <mxGeometry x="110" y="300" width="60" height="30" as="geometry" />
        </mxCell>
        <mxCell id="b54lAwSGRk71u41ndYf9-33" value="" style="endArrow=classic;html=1;rounded=0;exitX=0.5;exitY=0;exitDx=0;exitDy=0;entryX=0;entryY=0.5;entryDx=0;entryDy=0;dashed=1;dashPattern=8 8;" edge="1" parent="b54lAwSGRk71u41ndYf9-1" source="b54lAwSGRk71u41ndYf9-3" target="b54lAwSGRk71u41ndYf9-9">
          <mxGeometry width="50" height="50" relative="1" as="geometry">
            <mxPoint x="610" y="250" as="sourcePoint" />
            <mxPoint x="660" y="200" as="targetPoint" />
            <Array as="points">
              <mxPoint x="300" y="160" />
              <mxPoint x="800" y="160" />
              <mxPoint x="800" y="300" />
            </Array>
          </mxGeometry>
        </mxCell>
        <mxCell id="ihRZ7NpiWsuZkH7TCTM7-0" value="" style="group;" vertex="1" connectable="0" parent="b54lAwSGRk71u41ndYf9-1">
          <mxGeometry x="400" y="220" width="320" height="180" as="geometry" />
        </mxCell>
        <mxCell id="b54lAwSGRk71u41ndYf9-13" value="" style="group;movable=1;resizable=1;rotatable=1;deletable=1;editable=1;locked=0;connectable=1;textOpacity=20;" vertex="1" connectable="0" parent="ihRZ7NpiWsuZkH7TCTM7-0">
          <mxGeometry x="120" y="50" width="200" height="130" as="geometry" />
        </mxCell>
        <mxCell id="b54lAwSGRk71u41ndYf9-14" value="" style="rounded=1;whiteSpace=wrap;html=1;movable=1;resizable=1;rotatable=1;deletable=1;editable=1;locked=0;connectable=1;textOpacity=20;" vertex="1" parent="b54lAwSGRk71u41ndYf9-13">
          <mxGeometry y="-70" width="200" height="200" as="geometry" />
        </mxCell>
        <mxCell id="b54lAwSGRk71u41ndYf9-15" value="&lt;div&gt;Estimation de la variance d&#39;une fonction d&#39;un total - Plan à un degré&lt;br&gt;&lt;/div&gt;" style="text;html=1;align=center;verticalAlign=middle;whiteSpace=wrap;rounded=0;container=0;movable=1;resizable=1;rotatable=1;deletable=1;editable=1;locked=0;connectable=1;textOpacity=20;" vertex="1" parent="b54lAwSGRk71u41ndYf9-13">
          <mxGeometry x="19.047619047619047" y="80" width="161.9047619047619" height="24" as="geometry" />
        </mxCell>
        <mxCell id="b54lAwSGRk71u41ndYf9-31" value="$$\hat{\mathbb{V}}(f(\hat{t}_{y,\text{HT}})) \approx \hat{\mathbb{V}}(\hat{t}_{u,\text{HT}})$$" style="text;html=1;align=center;verticalAlign=middle;whiteSpace=wrap;rounded=0;fontSize=15;textOpacity=20;" vertex="1" parent="ihRZ7NpiWsuZkH7TCTM7-0">
          <mxGeometry x="140" width="160.95" height="100" as="geometry" />
        </mxCell>
        <mxCell id="b54lAwSGRk71u41ndYf9-32" value="Linéarisation" style="text;html=1;align=center;verticalAlign=middle;whiteSpace=wrap;rounded=0;textOpacity=20;opacity=30;" vertex="1" parent="ihRZ7NpiWsuZkH7TCTM7-0">
          <mxGeometry y="50" width="120" height="30" as="geometry" />
        </mxCell>
        <mxCell id="ihRZ7NpiWsuZkH7TCTM7-1" value="" style="group;textOpacity=10;" vertex="1" connectable="0" parent="b54lAwSGRk71u41ndYf9-1">
          <mxGeometry x="-440" y="130" width="740" height="280" as="geometry" />
        </mxCell>
        <mxCell id="b54lAwSGRk71u41ndYf9-16" value="" style="rounded=1;whiteSpace=wrap;html=1;movable=1;resizable=1;rotatable=1;deletable=1;editable=1;locked=0;connectable=1;textOpacity=20;" vertex="1" parent="ihRZ7NpiWsuZkH7TCTM7-1">
          <mxGeometry y="70" width="200" height="200" as="geometry" />
        </mxCell>
        <mxCell id="b54lAwSGRk71u41ndYf9-17" value="" style="group;movable=1;resizable=1;rotatable=1;deletable=1;editable=1;locked=0;connectable=1;textOpacity=20;" vertex="1" connectable="0" parent="ihRZ7NpiWsuZkH7TCTM7-1">
          <mxGeometry x="20" y="200" width="160" height="80" as="geometry" />
        </mxCell>
        <mxCell id="b54lAwSGRk71u41ndYf9-18" value="Estimation de la variance d&#39;un total calé - Plan à un degré" style="text;html=1;align=center;verticalAlign=middle;whiteSpace=wrap;rounded=0;container=0;movable=1;resizable=1;rotatable=1;deletable=1;editable=1;locked=0;connectable=1;textOpacity=20;" vertex="1" parent="b54lAwSGRk71u41ndYf9-17">
          <mxGeometry x="11.33" y="28" width="146.67" height="24" as="geometry" />
        </mxCell>
        <mxCell id="b54lAwSGRk71u41ndYf9-25" style="edgeStyle=orthogonalEdgeStyle;rounded=0;orthogonalLoop=1;jettySize=auto;html=1;entryX=1;entryY=0.5;entryDx=0;entryDy=0;dashed=1;dashPattern=8 8;opacity=20;" edge="1" parent="ihRZ7NpiWsuZkH7TCTM7-1" target="b54lAwSGRk71u41ndYf9-16">
          <mxGeometry relative="1" as="geometry">
            <mxPoint x="740" y="70" as="sourcePoint" />
            <Array as="points">
              <mxPoint x="740" y="30" />
              <mxPoint x="240" y="30" />
              <mxPoint x="240" y="170" />
            </Array>
          </mxGeometry>
        </mxCell>
        <mxCell id="b54lAwSGRk71u41ndYf9-29" value="Résidus de la régression" style="text;html=1;align=center;verticalAlign=middle;whiteSpace=wrap;rounded=0;direction=south;rotation=0;textOpacity=20;" vertex="1" parent="ihRZ7NpiWsuZkH7TCTM7-1">
          <mxGeometry x="430" width="190" height="30" as="geometry" />
        </mxCell>
        <mxCell id="b54lAwSGRk71u41ndYf9-30" value="$$\hat{\mathbb{V}}(f(\hat{t}_{y,\text{HT}})) \approx \hat{\mathbb{V}}(\hat{t}_{u,\text{HT}})$$" style="text;html=1;align=center;verticalAlign=middle;whiteSpace=wrap;rounded=0;fontSize=15;textOpacity=20;" vertex="1" parent="ihRZ7NpiWsuZkH7TCTM7-1">
          <mxGeometry x="19.999999999999943" y="100" width="160.95" height="100" as="geometry" />
        </mxCell>
      </root>
    </mxGraphModel>
  </diagram>
  <diagram name="resume2" id="uvfEhSemI_tk6VaBhqIJ">
    <mxGraphModel dx="2533" dy="1063" grid="1" gridSize="10" guides="1" tooltips="1" connect="1" arrows="1" fold="1" page="1" pageScale="1" pageWidth="827" pageHeight="1169" math="1" shadow="0">
      <root>
        <mxCell id="lkVTaYn32QMRqrv_oON3-0" />
        <mxCell id="lkVTaYn32QMRqrv_oON3-1" parent="lkVTaYn32QMRqrv_oON3-0" />
        <mxCell id="lkVTaYn32QMRqrv_oON3-2" value="" style="group" vertex="1" connectable="0" parent="lkVTaYn32QMRqrv_oON3-1">
          <mxGeometry x="200" y="200" width="200" height="200" as="geometry" />
        </mxCell>
        <mxCell id="lkVTaYn32QMRqrv_oON3-3" value="" style="rounded=1;whiteSpace=wrap;html=1;container=0;" vertex="1" parent="lkVTaYn32QMRqrv_oON3-2">
          <mxGeometry width="200" height="200" as="geometry" />
        </mxCell>
        <mxCell id="lkVTaYn32QMRqrv_oON3-4" value="&lt;div&gt;Estimation de la variance d&#39;un total -&lt;/div&gt;&lt;div&gt;Plan à un degré&lt;br&gt;&lt;/div&gt;" style="text;html=1;align=center;verticalAlign=middle;whiteSpace=wrap;rounded=0;container=0;" vertex="1" parent="lkVTaYn32QMRqrv_oON3-2">
          <mxGeometry x="25" y="150" width="150" height="30" as="geometry" />
        </mxCell>
        <mxCell id="lkVTaYn32QMRqrv_oON3-5" value="&lt;div style=&quot;font-size: 22px;&quot;&gt;$$\hat{\mathbb{V}}_&amp;nbsp; \text{HT}$$&lt;/div&gt;" style="text;html=1;align=center;verticalAlign=middle;whiteSpace=wrap;rounded=0;fontSize=22;container=0;" vertex="1" parent="lkVTaYn32QMRqrv_oON3-2">
          <mxGeometry x="10" y="10" width="90" height="60" as="geometry" />
        </mxCell>
        <mxCell id="lkVTaYn32QMRqrv_oON3-6" value="&lt;div style=&quot;font-size: 22px;&quot;&gt;$$\hat{\mathbb{V}}_&amp;nbsp; \text{SYG}$$&lt;/div&gt;" style="text;html=1;align=center;verticalAlign=middle;whiteSpace=wrap;rounded=0;fontSize=22;container=0;" vertex="1" parent="lkVTaYn32QMRqrv_oON3-2">
          <mxGeometry x="90" y="40" width="90" height="60" as="geometry" />
        </mxCell>
        <mxCell id="lkVTaYn32QMRqrv_oON3-7" value="&lt;div style=&quot;font-size: 22px;&quot;&gt;$$\hat{\mathbb{V}}_&amp;nbsp; \text{DT}$$&lt;/div&gt;" style="text;html=1;align=center;verticalAlign=middle;whiteSpace=wrap;rounded=0;fontSize=22;container=0;" vertex="1" parent="lkVTaYn32QMRqrv_oON3-2">
          <mxGeometry x="20" y="80" width="90" height="60" as="geometry" />
        </mxCell>
        <mxCell id="lkVTaYn32QMRqrv_oON3-8" value="" style="group;movable=1;resizable=1;rotatable=1;deletable=1;editable=1;locked=0;connectable=1;" vertex="1" connectable="0" parent="lkVTaYn32QMRqrv_oON3-1">
          <mxGeometry x="840" y="240" width="200" height="160" as="geometry" />
        </mxCell>
        <mxCell id="lkVTaYn32QMRqrv_oON3-9" value="" style="rounded=1;whiteSpace=wrap;html=1;movable=1;resizable=1;rotatable=1;deletable=1;editable=1;locked=0;connectable=1;" vertex="1" parent="lkVTaYn32QMRqrv_oON3-8">
          <mxGeometry y="-40" width="200" height="200" as="geometry" />
        </mxCell>
        <mxCell id="lkVTaYn32QMRqrv_oON3-10" value="&lt;div&gt;Estimation de la variance d&#39;un total -&lt;/div&gt;&lt;div&gt;Plan à plusieurs degrés&lt;br&gt;&lt;/div&gt;" style="text;html=1;align=center;verticalAlign=middle;whiteSpace=wrap;rounded=0;container=0;movable=1;resizable=1;rotatable=1;deletable=1;editable=1;locked=0;connectable=1;" vertex="1" parent="lkVTaYn32QMRqrv_oON3-8">
          <mxGeometry x="22.5" y="100" width="155" height="48" as="geometry" />
        </mxCell>
        <mxCell id="lkVTaYn32QMRqrv_oON3-11" value="$$\hat{\mathbb{V}}(\hat{t}_{y,\text{HT}}) = Q(\hat{u}_1, ..., \hat{u}_{n_\text{UP}}) + $$" style="text;html=1;align=center;verticalAlign=middle;whiteSpace=wrap;rounded=0;" vertex="1" parent="lkVTaYn32QMRqrv_oON3-8">
          <mxGeometry x="70" width="60" height="30" as="geometry" />
        </mxCell>
        <mxCell id="lkVTaYn32QMRqrv_oON3-12" value="$$\sum_{u} (\frac{1}{\pi_u^2} - q_u) \hat{\mathbb{V}}(\hat{t}_u) $$" style="text;html=1;align=center;verticalAlign=middle;whiteSpace=wrap;rounded=0;" vertex="1" parent="lkVTaYn32QMRqrv_oON3-8">
          <mxGeometry x="70" y="45" width="60" height="30" as="geometry" />
        </mxCell>
        <mxCell id="lkVTaYn32QMRqrv_oON3-13" value="" style="group;movable=1;resizable=1;rotatable=1;deletable=1;editable=1;locked=0;connectable=1;textOpacity=20;" vertex="1" connectable="0" parent="lkVTaYn32QMRqrv_oON3-1">
          <mxGeometry x="-120" y="270" width="200" height="130" as="geometry" />
        </mxCell>
        <mxCell id="lkVTaYn32QMRqrv_oON3-14" value="" style="rounded=1;whiteSpace=wrap;html=1;movable=1;resizable=1;rotatable=1;deletable=1;editable=1;locked=0;connectable=1;" vertex="1" parent="lkVTaYn32QMRqrv_oON3-13">
          <mxGeometry y="-70" width="200" height="200" as="geometry" />
        </mxCell>
        <mxCell id="lkVTaYn32QMRqrv_oON3-15" value="&lt;div&gt;Estimation de la variance d&#39;une fonction d&#39;un total - Plan indirect&lt;br&gt;&lt;/div&gt;" style="text;html=1;align=center;verticalAlign=middle;whiteSpace=wrap;rounded=0;container=0;movable=1;resizable=1;rotatable=1;deletable=1;editable=1;locked=0;connectable=1;textOpacity=20;" vertex="1" parent="lkVTaYn32QMRqrv_oON3-13">
          <mxGeometry x="19.047619047619047" y="90" width="161.9047619047619" height="24" as="geometry" />
        </mxCell>
        <mxCell id="lkVTaYn32QMRqrv_oON3-16" value="$$\hat{\mathbb{V}}(\underbrace{\hat{t}_{y,\text{HT}}}_{\text{Pop. fille}}) \approx \hat{\mathbb{V}}(\underbrace{\hat{t}_{z,\text{HT}}}_{\text{Pop. mère}})$$" style="text;html=1;align=center;verticalAlign=middle;whiteSpace=wrap;rounded=0;fontSize=15;textOpacity=20;" vertex="1" parent="lkVTaYn32QMRqrv_oON3-13">
          <mxGeometry x="20" y="-60" width="160.95" height="100" as="geometry" />
        </mxCell>
        <mxCell id="lkVTaYn32QMRqrv_oON3-17" value="" style="endArrow=classic;html=1;rounded=0;exitX=1;exitY=0.5;exitDx=0;exitDy=0;entryX=0;entryY=0.5;entryDx=0;entryDy=0;dashed=1;dashPattern=8 8;textOpacity=30;" edge="1" parent="lkVTaYn32QMRqrv_oON3-1" source="lkVTaYn32QMRqrv_oON3-3" target="lkVTaYn32QMRqrv_oON3-25">
          <mxGeometry width="50" height="50" relative="1" as="geometry">
            <mxPoint x="260" y="260" as="sourcePoint" />
            <mxPoint x="310" y="210" as="targetPoint" />
          </mxGeometry>
        </mxCell>
        <mxCell id="lkVTaYn32QMRqrv_oON3-18" value="" style="endArrow=classic;html=1;rounded=0;exitX=0;exitY=0.5;exitDx=0;exitDy=0;entryX=1;entryY=0.5;entryDx=0;entryDy=0;dashed=1;dashPattern=8 8;opacity=20;" edge="1" parent="lkVTaYn32QMRqrv_oON3-1" source="lkVTaYn32QMRqrv_oON3-3" target="lkVTaYn32QMRqrv_oON3-14">
          <mxGeometry width="50" height="50" relative="1" as="geometry">
            <mxPoint x="410" y="310" as="sourcePoint" />
            <mxPoint x="490" y="310" as="targetPoint" />
          </mxGeometry>
        </mxCell>
        <mxCell id="lkVTaYn32QMRqrv_oON3-19" value="Formule de Rao" style="text;html=1;align=center;verticalAlign=middle;whiteSpace=wrap;rounded=0;rotation=0;" vertex="1" parent="lkVTaYn32QMRqrv_oON3-1">
          <mxGeometry x="490" y="130" width="100" height="30" as="geometry" />
        </mxCell>
        <mxCell id="lkVTaYn32QMRqrv_oON3-20" value="&lt;div&gt;Transformation&lt;br&gt;&lt;/div&gt;" style="text;html=1;align=center;verticalAlign=middle;whiteSpace=wrap;rounded=0;textOpacity=20;" vertex="1" parent="lkVTaYn32QMRqrv_oON3-1">
          <mxGeometry x="110" y="270" width="60" height="30" as="geometry" />
        </mxCell>
        <mxCell id="lkVTaYn32QMRqrv_oON3-21" value="de la var d&#39;intérêt" style="text;html=1;align=center;verticalAlign=middle;whiteSpace=wrap;rounded=0;textOpacity=20;" vertex="1" parent="lkVTaYn32QMRqrv_oON3-1">
          <mxGeometry x="110" y="300" width="60" height="30" as="geometry" />
        </mxCell>
        <mxCell id="lkVTaYn32QMRqrv_oON3-22" value="" style="endArrow=classic;html=1;rounded=0;exitX=0.5;exitY=0;exitDx=0;exitDy=0;entryX=0;entryY=0.5;entryDx=0;entryDy=0;dashed=1;dashPattern=8 8;" edge="1" parent="lkVTaYn32QMRqrv_oON3-1" source="lkVTaYn32QMRqrv_oON3-3" target="lkVTaYn32QMRqrv_oON3-9">
          <mxGeometry width="50" height="50" relative="1" as="geometry">
            <mxPoint x="610" y="250" as="sourcePoint" />
            <mxPoint x="660" y="200" as="targetPoint" />
            <Array as="points">
              <mxPoint x="300" y="160" />
              <mxPoint x="800" y="160" />
              <mxPoint x="800" y="300" />
            </Array>
          </mxGeometry>
        </mxCell>
        <mxCell id="lkVTaYn32QMRqrv_oON3-23" value="" style="group;" vertex="1" connectable="0" parent="lkVTaYn32QMRqrv_oON3-1">
          <mxGeometry x="400" y="220" width="320" height="180" as="geometry" />
        </mxCell>
        <mxCell id="lkVTaYn32QMRqrv_oON3-24" value="" style="group;movable=1;resizable=1;rotatable=1;deletable=1;editable=1;locked=0;connectable=1;" vertex="1" connectable="0" parent="lkVTaYn32QMRqrv_oON3-23">
          <mxGeometry x="120" y="50" width="200" height="130" as="geometry" />
        </mxCell>
        <mxCell id="lkVTaYn32QMRqrv_oON3-25" value="" style="rounded=1;whiteSpace=wrap;html=1;movable=1;resizable=1;rotatable=1;deletable=1;editable=1;locked=0;connectable=1;textOpacity=20;" vertex="1" parent="lkVTaYn32QMRqrv_oON3-24">
          <mxGeometry y="-70" width="200" height="200" as="geometry" />
        </mxCell>
        <mxCell id="lkVTaYn32QMRqrv_oON3-26" value="&lt;div&gt;Estimation de la variance d&#39;une fonction d&#39;un total - Plan à un degré&lt;br&gt;&lt;/div&gt;" style="text;html=1;align=center;verticalAlign=middle;whiteSpace=wrap;rounded=0;container=0;movable=1;resizable=1;rotatable=1;deletable=1;editable=1;locked=0;connectable=1;" vertex="1" parent="lkVTaYn32QMRqrv_oON3-24">
          <mxGeometry x="19.047619047619047" y="80" width="161.9047619047619" height="24" as="geometry" />
        </mxCell>
        <mxCell id="lkVTaYn32QMRqrv_oON3-27" value="$$\hat{\mathbb{V}}(f(\hat{t}_{y,\text{HT}})) \approx \hat{\mathbb{V}}(\hat{t}_{u,\text{HT}})$$" style="text;html=1;align=center;verticalAlign=middle;whiteSpace=wrap;rounded=0;fontSize=15;" vertex="1" parent="lkVTaYn32QMRqrv_oON3-23">
          <mxGeometry x="140" width="160.95" height="100" as="geometry" />
        </mxCell>
        <mxCell id="lkVTaYn32QMRqrv_oON3-28" value="Linéarisation" style="text;html=1;align=center;verticalAlign=middle;whiteSpace=wrap;rounded=0;" vertex="1" parent="lkVTaYn32QMRqrv_oON3-23">
          <mxGeometry y="50" width="120" height="30" as="geometry" />
        </mxCell>
        <mxCell id="lkVTaYn32QMRqrv_oON3-29" value="" style="group;textOpacity=10;" vertex="1" connectable="0" parent="lkVTaYn32QMRqrv_oON3-1">
          <mxGeometry x="-440" y="130" width="740" height="280" as="geometry" />
        </mxCell>
        <mxCell id="lkVTaYn32QMRqrv_oON3-30" value="" style="rounded=1;whiteSpace=wrap;html=1;movable=1;resizable=1;rotatable=1;deletable=1;editable=1;locked=0;connectable=1;textOpacity=20;" vertex="1" parent="lkVTaYn32QMRqrv_oON3-29">
          <mxGeometry y="70" width="200" height="200" as="geometry" />
        </mxCell>
        <mxCell id="lkVTaYn32QMRqrv_oON3-31" value="" style="group;movable=1;resizable=1;rotatable=1;deletable=1;editable=1;locked=0;connectable=1;textOpacity=20;" vertex="1" connectable="0" parent="lkVTaYn32QMRqrv_oON3-29">
          <mxGeometry x="20" y="200" width="160" height="80" as="geometry" />
        </mxCell>
        <mxCell id="lkVTaYn32QMRqrv_oON3-32" value="Estimation de la variance d&#39;un total calé - Plan à un degré" style="text;html=1;align=center;verticalAlign=middle;whiteSpace=wrap;rounded=0;container=0;movable=1;resizable=1;rotatable=1;deletable=1;editable=1;locked=0;connectable=1;textOpacity=20;" vertex="1" parent="lkVTaYn32QMRqrv_oON3-31">
          <mxGeometry x="11.33" y="28" width="146.67" height="24" as="geometry" />
        </mxCell>
        <mxCell id="lkVTaYn32QMRqrv_oON3-33" style="edgeStyle=orthogonalEdgeStyle;rounded=0;orthogonalLoop=1;jettySize=auto;html=1;entryX=1;entryY=0.5;entryDx=0;entryDy=0;dashed=1;dashPattern=8 8;opacity=20;" edge="1" parent="lkVTaYn32QMRqrv_oON3-29" target="lkVTaYn32QMRqrv_oON3-30">
          <mxGeometry relative="1" as="geometry">
            <mxPoint x="740" y="70" as="sourcePoint" />
            <Array as="points">
              <mxPoint x="740" y="30" />
              <mxPoint x="240" y="30" />
              <mxPoint x="240" y="170" />
            </Array>
          </mxGeometry>
        </mxCell>
        <mxCell id="lkVTaYn32QMRqrv_oON3-34" value="Résidus de la régression" style="text;html=1;align=center;verticalAlign=middle;whiteSpace=wrap;rounded=0;direction=south;rotation=0;textOpacity=20;" vertex="1" parent="lkVTaYn32QMRqrv_oON3-29">
          <mxGeometry x="430" width="190" height="30" as="geometry" />
        </mxCell>
        <mxCell id="lkVTaYn32QMRqrv_oON3-35" value="$$\hat{\mathbb{V}}(f(\hat{t}_{y,\text{HT}})) \approx \hat{\mathbb{V}}(\hat{t}_{u,\text{HT}})$$" style="text;html=1;align=center;verticalAlign=middle;whiteSpace=wrap;rounded=0;fontSize=15;textOpacity=20;" vertex="1" parent="lkVTaYn32QMRqrv_oON3-29">
          <mxGeometry x="19.999999999999943" y="100" width="160.95" height="100" as="geometry" />
        </mxCell>
      </root>
    </mxGraphModel>
  </diagram>
  <diagram name="resume3" id="UFukJx43OyivyeK8W-7o">
    <mxGraphModel dx="2021" dy="744" grid="1" gridSize="10" guides="1" tooltips="1" connect="1" arrows="1" fold="1" page="1" pageScale="1" pageWidth="827" pageHeight="1169" math="1" shadow="0">
      <root>
        <mxCell id="VC06cTnCLxW4VXaFtCBA-0" />
        <mxCell id="VC06cTnCLxW4VXaFtCBA-1" parent="VC06cTnCLxW4VXaFtCBA-0" />
        <mxCell id="VC06cTnCLxW4VXaFtCBA-2" value="" style="group" vertex="1" connectable="0" parent="VC06cTnCLxW4VXaFtCBA-1">
          <mxGeometry x="200" y="200" width="200" height="200" as="geometry" />
        </mxCell>
        <mxCell id="VC06cTnCLxW4VXaFtCBA-3" value="" style="rounded=1;whiteSpace=wrap;html=1;container=0;" vertex="1" parent="VC06cTnCLxW4VXaFtCBA-2">
          <mxGeometry width="200" height="200" as="geometry" />
        </mxCell>
        <mxCell id="VC06cTnCLxW4VXaFtCBA-4" value="&lt;div&gt;Estimation de la variance d&#39;un total -&lt;/div&gt;&lt;div&gt;Plan à un degré&lt;br&gt;&lt;/div&gt;" style="text;html=1;align=center;verticalAlign=middle;whiteSpace=wrap;rounded=0;container=0;" vertex="1" parent="VC06cTnCLxW4VXaFtCBA-2">
          <mxGeometry x="25" y="150" width="150" height="30" as="geometry" />
        </mxCell>
        <mxCell id="VC06cTnCLxW4VXaFtCBA-5" value="&lt;div style=&quot;font-size: 22px;&quot;&gt;$$\hat{\mathbb{V}}_&amp;nbsp; \text{HT}$$&lt;/div&gt;" style="text;html=1;align=center;verticalAlign=middle;whiteSpace=wrap;rounded=0;fontSize=22;container=0;" vertex="1" parent="VC06cTnCLxW4VXaFtCBA-2">
          <mxGeometry x="10" y="10" width="90" height="60" as="geometry" />
        </mxCell>
        <mxCell id="VC06cTnCLxW4VXaFtCBA-6" value="&lt;div style=&quot;font-size: 22px;&quot;&gt;$$\hat{\mathbb{V}}_&amp;nbsp; \text{SYG}$$&lt;/div&gt;" style="text;html=1;align=center;verticalAlign=middle;whiteSpace=wrap;rounded=0;fontSize=22;container=0;" vertex="1" parent="VC06cTnCLxW4VXaFtCBA-2">
          <mxGeometry x="90" y="40" width="90" height="60" as="geometry" />
        </mxCell>
        <mxCell id="VC06cTnCLxW4VXaFtCBA-7" value="&lt;div style=&quot;font-size: 22px;&quot;&gt;$$\hat{\mathbb{V}}_&amp;nbsp; \text{DT}$$&lt;/div&gt;" style="text;html=1;align=center;verticalAlign=middle;whiteSpace=wrap;rounded=0;fontSize=22;container=0;" vertex="1" parent="VC06cTnCLxW4VXaFtCBA-2">
          <mxGeometry x="20" y="80" width="90" height="60" as="geometry" />
        </mxCell>
        <mxCell id="VC06cTnCLxW4VXaFtCBA-8" value="" style="group;movable=1;resizable=1;rotatable=1;deletable=1;editable=1;locked=0;connectable=1;" vertex="1" connectable="0" parent="VC06cTnCLxW4VXaFtCBA-1">
          <mxGeometry x="840" y="240" width="200" height="160" as="geometry" />
        </mxCell>
        <mxCell id="VC06cTnCLxW4VXaFtCBA-9" value="" style="rounded=1;whiteSpace=wrap;html=1;movable=1;resizable=1;rotatable=1;deletable=1;editable=1;locked=0;connectable=1;" vertex="1" parent="VC06cTnCLxW4VXaFtCBA-8">
          <mxGeometry y="-40" width="200" height="200" as="geometry" />
        </mxCell>
        <mxCell id="VC06cTnCLxW4VXaFtCBA-10" value="&lt;div&gt;Estimation de la variance d&#39;un total -&lt;/div&gt;&lt;div&gt;Plan à plusieurs degrés&lt;br&gt;&lt;/div&gt;" style="text;html=1;align=center;verticalAlign=middle;whiteSpace=wrap;rounded=0;container=0;movable=1;resizable=1;rotatable=1;deletable=1;editable=1;locked=0;connectable=1;" vertex="1" parent="VC06cTnCLxW4VXaFtCBA-8">
          <mxGeometry x="22.5" y="100" width="155" height="48" as="geometry" />
        </mxCell>
        <mxCell id="VC06cTnCLxW4VXaFtCBA-11" value="$$\hat{\mathbb{V}}(\hat{t}_{y,\text{HT}}) = Q(\hat{u}_1, ..., \hat{u}_{n_\text{UP}}) + $$" style="text;html=1;align=center;verticalAlign=middle;whiteSpace=wrap;rounded=0;" vertex="1" parent="VC06cTnCLxW4VXaFtCBA-8">
          <mxGeometry x="70" width="60" height="30" as="geometry" />
        </mxCell>
        <mxCell id="VC06cTnCLxW4VXaFtCBA-12" value="$$\sum_{u} (\frac{1}{\pi_u^2} - q_u) \hat{\mathbb{V}}(\hat{t}_u) $$" style="text;html=1;align=center;verticalAlign=middle;whiteSpace=wrap;rounded=0;" vertex="1" parent="VC06cTnCLxW4VXaFtCBA-8">
          <mxGeometry x="70" y="45" width="60" height="30" as="geometry" />
        </mxCell>
        <mxCell id="VC06cTnCLxW4VXaFtCBA-13" value="" style="group;movable=1;resizable=1;rotatable=1;deletable=1;editable=1;locked=0;connectable=1;textOpacity=20;" vertex="1" connectable="0" parent="VC06cTnCLxW4VXaFtCBA-1">
          <mxGeometry x="-120" y="270" width="200" height="130" as="geometry" />
        </mxCell>
        <mxCell id="VC06cTnCLxW4VXaFtCBA-14" value="" style="rounded=1;whiteSpace=wrap;html=1;movable=1;resizable=1;rotatable=1;deletable=1;editable=1;locked=0;connectable=1;" vertex="1" parent="VC06cTnCLxW4VXaFtCBA-13">
          <mxGeometry y="-70" width="200" height="200" as="geometry" />
        </mxCell>
        <mxCell id="VC06cTnCLxW4VXaFtCBA-15" value="&lt;div&gt;Estimation de la variance d&#39;une fonction d&#39;un total - Plan indirect&lt;br&gt;&lt;/div&gt;" style="text;html=1;align=center;verticalAlign=middle;whiteSpace=wrap;rounded=0;container=0;movable=1;resizable=1;rotatable=1;deletable=1;editable=1;locked=0;connectable=1;textOpacity=20;" vertex="1" parent="VC06cTnCLxW4VXaFtCBA-13">
          <mxGeometry x="19.047619047619047" y="90" width="161.9047619047619" height="24" as="geometry" />
        </mxCell>
        <mxCell id="VC06cTnCLxW4VXaFtCBA-16" value="$$\hat{\mathbb{V}}(\underbrace{\hat{t}_{y,\text{HT}}}_{\text{Pop. fille}}) \approx \hat{\mathbb{V}}(\underbrace{\hat{t}_{z,\text{HT}}}_{\text{Pop. mère}})$$" style="text;html=1;align=center;verticalAlign=middle;whiteSpace=wrap;rounded=0;fontSize=15;textOpacity=20;" vertex="1" parent="VC06cTnCLxW4VXaFtCBA-13">
          <mxGeometry x="20" y="-60" width="160.95" height="100" as="geometry" />
        </mxCell>
        <mxCell id="VC06cTnCLxW4VXaFtCBA-17" value="" style="endArrow=classic;html=1;rounded=0;exitX=1;exitY=0.5;exitDx=0;exitDy=0;entryX=0;entryY=0.5;entryDx=0;entryDy=0;dashed=1;dashPattern=8 8;textOpacity=30;" edge="1" parent="VC06cTnCLxW4VXaFtCBA-1" source="VC06cTnCLxW4VXaFtCBA-3" target="VC06cTnCLxW4VXaFtCBA-25">
          <mxGeometry width="50" height="50" relative="1" as="geometry">
            <mxPoint x="260" y="260" as="sourcePoint" />
            <mxPoint x="310" y="210" as="targetPoint" />
          </mxGeometry>
        </mxCell>
        <mxCell id="VC06cTnCLxW4VXaFtCBA-18" value="" style="endArrow=classic;html=1;rounded=0;exitX=0;exitY=0.5;exitDx=0;exitDy=0;entryX=1;entryY=0.5;entryDx=0;entryDy=0;dashed=1;dashPattern=8 8;opacity=20;" edge="1" parent="VC06cTnCLxW4VXaFtCBA-1" source="VC06cTnCLxW4VXaFtCBA-3" target="VC06cTnCLxW4VXaFtCBA-14">
          <mxGeometry width="50" height="50" relative="1" as="geometry">
            <mxPoint x="410" y="310" as="sourcePoint" />
            <mxPoint x="490" y="310" as="targetPoint" />
          </mxGeometry>
        </mxCell>
        <mxCell id="VC06cTnCLxW4VXaFtCBA-19" value="Formule de Rao" style="text;html=1;align=center;verticalAlign=middle;whiteSpace=wrap;rounded=0;rotation=0;" vertex="1" parent="VC06cTnCLxW4VXaFtCBA-1">
          <mxGeometry x="490" y="130" width="100" height="30" as="geometry" />
        </mxCell>
        <mxCell id="VC06cTnCLxW4VXaFtCBA-20" value="&lt;div&gt;Transformation&lt;br&gt;&lt;/div&gt;" style="text;html=1;align=center;verticalAlign=middle;whiteSpace=wrap;rounded=0;textOpacity=20;" vertex="1" parent="VC06cTnCLxW4VXaFtCBA-1">
          <mxGeometry x="110" y="270" width="60" height="30" as="geometry" />
        </mxCell>
        <mxCell id="VC06cTnCLxW4VXaFtCBA-21" value="de la var d&#39;intérêt" style="text;html=1;align=center;verticalAlign=middle;whiteSpace=wrap;rounded=0;textOpacity=20;" vertex="1" parent="VC06cTnCLxW4VXaFtCBA-1">
          <mxGeometry x="110" y="300" width="60" height="30" as="geometry" />
        </mxCell>
        <mxCell id="VC06cTnCLxW4VXaFtCBA-22" value="" style="endArrow=classic;html=1;rounded=0;exitX=0.5;exitY=0;exitDx=0;exitDy=0;entryX=0;entryY=0.5;entryDx=0;entryDy=0;dashed=1;dashPattern=8 8;" edge="1" parent="VC06cTnCLxW4VXaFtCBA-1" source="VC06cTnCLxW4VXaFtCBA-3" target="VC06cTnCLxW4VXaFtCBA-9">
          <mxGeometry width="50" height="50" relative="1" as="geometry">
            <mxPoint x="610" y="250" as="sourcePoint" />
            <mxPoint x="660" y="200" as="targetPoint" />
            <Array as="points">
              <mxPoint x="300" y="160" />
              <mxPoint x="800" y="160" />
              <mxPoint x="800" y="300" />
            </Array>
          </mxGeometry>
        </mxCell>
        <mxCell id="VC06cTnCLxW4VXaFtCBA-23" value="" style="group;" vertex="1" connectable="0" parent="VC06cTnCLxW4VXaFtCBA-1">
          <mxGeometry x="400" y="220" width="320" height="180" as="geometry" />
        </mxCell>
        <mxCell id="VC06cTnCLxW4VXaFtCBA-24" value="" style="group;movable=1;resizable=1;rotatable=1;deletable=1;editable=1;locked=0;connectable=1;" vertex="1" connectable="0" parent="VC06cTnCLxW4VXaFtCBA-23">
          <mxGeometry x="120" y="50" width="200" height="130" as="geometry" />
        </mxCell>
        <mxCell id="VC06cTnCLxW4VXaFtCBA-25" value="" style="rounded=1;whiteSpace=wrap;html=1;movable=1;resizable=1;rotatable=1;deletable=1;editable=1;locked=0;connectable=1;textOpacity=20;" vertex="1" parent="VC06cTnCLxW4VXaFtCBA-24">
          <mxGeometry y="-70" width="200" height="200" as="geometry" />
        </mxCell>
        <mxCell id="VC06cTnCLxW4VXaFtCBA-26" value="&lt;div&gt;Estimation de la variance d&#39;une fonction d&#39;un total - Plan à un degré&lt;br&gt;&lt;/div&gt;" style="text;html=1;align=center;verticalAlign=middle;whiteSpace=wrap;rounded=0;container=0;movable=1;resizable=1;rotatable=1;deletable=1;editable=1;locked=0;connectable=1;" vertex="1" parent="VC06cTnCLxW4VXaFtCBA-24">
          <mxGeometry x="19.047619047619047" y="80" width="161.9047619047619" height="24" as="geometry" />
        </mxCell>
        <mxCell id="VC06cTnCLxW4VXaFtCBA-27" value="$$\hat{\mathbb{V}}(f(\hat{t}_{y,\text{HT}})) \approx \hat{\mathbb{V}}(\hat{t}_{u,\text{HT}})$$" style="text;html=1;align=center;verticalAlign=middle;whiteSpace=wrap;rounded=0;fontSize=15;" vertex="1" parent="VC06cTnCLxW4VXaFtCBA-23">
          <mxGeometry x="140" width="160.95" height="100" as="geometry" />
        </mxCell>
        <mxCell id="VC06cTnCLxW4VXaFtCBA-28" value="Linéarisation" style="text;html=1;align=center;verticalAlign=middle;whiteSpace=wrap;rounded=0;" vertex="1" parent="VC06cTnCLxW4VXaFtCBA-23">
          <mxGeometry y="50" width="120" height="30" as="geometry" />
        </mxCell>
        <mxCell id="VC06cTnCLxW4VXaFtCBA-29" value="" style="group;textOpacity=10;" vertex="1" connectable="0" parent="VC06cTnCLxW4VXaFtCBA-1">
          <mxGeometry x="-440" y="130" width="740" height="280" as="geometry" />
        </mxCell>
        <mxCell id="VC06cTnCLxW4VXaFtCBA-30" value="" style="rounded=1;whiteSpace=wrap;html=1;movable=1;resizable=1;rotatable=1;deletable=1;editable=1;locked=0;connectable=1;" vertex="1" parent="VC06cTnCLxW4VXaFtCBA-29">
          <mxGeometry y="70" width="200" height="200" as="geometry" />
        </mxCell>
        <mxCell id="VC06cTnCLxW4VXaFtCBA-31" value="" style="group;movable=1;resizable=1;rotatable=1;deletable=1;editable=1;locked=0;connectable=1;" vertex="1" connectable="0" parent="VC06cTnCLxW4VXaFtCBA-29">
          <mxGeometry x="20" y="200" width="160" height="80" as="geometry" />
        </mxCell>
        <mxCell id="VC06cTnCLxW4VXaFtCBA-32" value="Estimation de la variance d&#39;un total calé - Plan à un degré" style="text;html=1;align=center;verticalAlign=middle;whiteSpace=wrap;rounded=0;container=0;movable=1;resizable=1;rotatable=1;deletable=1;editable=1;locked=0;connectable=1;" vertex="1" parent="VC06cTnCLxW4VXaFtCBA-31">
          <mxGeometry x="11.33" y="28" width="146.67" height="24" as="geometry" />
        </mxCell>
        <mxCell id="VC06cTnCLxW4VXaFtCBA-33" style="edgeStyle=orthogonalEdgeStyle;rounded=0;orthogonalLoop=1;jettySize=auto;html=1;entryX=1;entryY=0.5;entryDx=0;entryDy=0;dashed=1;dashPattern=8 8;" edge="1" parent="VC06cTnCLxW4VXaFtCBA-29" target="VC06cTnCLxW4VXaFtCBA-30">
          <mxGeometry relative="1" as="geometry">
            <mxPoint x="740" y="70" as="sourcePoint" />
            <Array as="points">
              <mxPoint x="740" y="30" />
              <mxPoint x="240" y="30" />
              <mxPoint x="240" y="170" />
            </Array>
          </mxGeometry>
        </mxCell>
        <mxCell id="VC06cTnCLxW4VXaFtCBA-34" value="Résidus de la régression" style="text;html=1;align=center;verticalAlign=middle;whiteSpace=wrap;rounded=0;direction=south;rotation=0;" vertex="1" parent="VC06cTnCLxW4VXaFtCBA-29">
          <mxGeometry x="430" width="190" height="30" as="geometry" />
        </mxCell>
        <mxCell id="VC06cTnCLxW4VXaFtCBA-35" value="$$\hat{\mathbb{V}}(f(\hat{t}_{y,\text{HT}})) \approx \hat{\mathbb{V}}(\hat{t}_{u,\text{HT}})$$" style="text;html=1;align=center;verticalAlign=middle;whiteSpace=wrap;rounded=0;fontSize=15;" vertex="1" parent="VC06cTnCLxW4VXaFtCBA-29">
          <mxGeometry x="19.999999999999943" y="100" width="160.95" height="100" as="geometry" />
        </mxCell>
      </root>
    </mxGraphModel>
  </diagram>
  <diagram name="resume4" id="e6u4VaHJtgIXIEFMyGK7">
    <mxGraphModel dx="2021" dy="744" grid="1" gridSize="10" guides="1" tooltips="1" connect="1" arrows="1" fold="1" page="1" pageScale="1" pageWidth="827" pageHeight="1169" math="1" shadow="0">
      <root>
        <mxCell id="gU8vJlUViDX8La7rh_Iv-0" />
        <mxCell id="gU8vJlUViDX8La7rh_Iv-1" parent="gU8vJlUViDX8La7rh_Iv-0" />
        <mxCell id="gU8vJlUViDX8La7rh_Iv-2" value="" style="group" vertex="1" connectable="0" parent="gU8vJlUViDX8La7rh_Iv-1">
          <mxGeometry x="200" y="200" width="200" height="200" as="geometry" />
        </mxCell>
        <mxCell id="gU8vJlUViDX8La7rh_Iv-3" value="" style="rounded=1;whiteSpace=wrap;html=1;container=0;" vertex="1" parent="gU8vJlUViDX8La7rh_Iv-2">
          <mxGeometry width="200" height="200" as="geometry" />
        </mxCell>
        <mxCell id="gU8vJlUViDX8La7rh_Iv-4" value="&lt;div&gt;Estimation de la variance d&#39;un total -&lt;/div&gt;&lt;div&gt;Plan à un degré&lt;br&gt;&lt;/div&gt;" style="text;html=1;align=center;verticalAlign=middle;whiteSpace=wrap;rounded=0;container=0;" vertex="1" parent="gU8vJlUViDX8La7rh_Iv-2">
          <mxGeometry x="25" y="150" width="150" height="30" as="geometry" />
        </mxCell>
        <mxCell id="gU8vJlUViDX8La7rh_Iv-5" value="&lt;div style=&quot;font-size: 22px;&quot;&gt;$$\hat{\mathbb{V}}_&amp;nbsp; \text{HT}$$&lt;/div&gt;" style="text;html=1;align=center;verticalAlign=middle;whiteSpace=wrap;rounded=0;fontSize=22;container=0;" vertex="1" parent="gU8vJlUViDX8La7rh_Iv-2">
          <mxGeometry x="10" y="10" width="90" height="60" as="geometry" />
        </mxCell>
        <mxCell id="gU8vJlUViDX8La7rh_Iv-6" value="&lt;div style=&quot;font-size: 22px;&quot;&gt;$$\hat{\mathbb{V}}_&amp;nbsp; \text{SYG}$$&lt;/div&gt;" style="text;html=1;align=center;verticalAlign=middle;whiteSpace=wrap;rounded=0;fontSize=22;container=0;" vertex="1" parent="gU8vJlUViDX8La7rh_Iv-2">
          <mxGeometry x="90" y="40" width="90" height="60" as="geometry" />
        </mxCell>
        <mxCell id="gU8vJlUViDX8La7rh_Iv-7" value="&lt;div style=&quot;font-size: 22px;&quot;&gt;$$\hat{\mathbb{V}}_&amp;nbsp; \text{DT}$$&lt;/div&gt;" style="text;html=1;align=center;verticalAlign=middle;whiteSpace=wrap;rounded=0;fontSize=22;container=0;" vertex="1" parent="gU8vJlUViDX8La7rh_Iv-2">
          <mxGeometry x="20" y="80" width="90" height="60" as="geometry" />
        </mxCell>
        <mxCell id="gU8vJlUViDX8La7rh_Iv-8" value="" style="group;movable=1;resizable=1;rotatable=1;deletable=1;editable=1;locked=0;connectable=1;" vertex="1" connectable="0" parent="gU8vJlUViDX8La7rh_Iv-1">
          <mxGeometry x="840" y="240" width="200" height="160" as="geometry" />
        </mxCell>
        <mxCell id="gU8vJlUViDX8La7rh_Iv-9" value="" style="rounded=1;whiteSpace=wrap;html=1;movable=1;resizable=1;rotatable=1;deletable=1;editable=1;locked=0;connectable=1;" vertex="1" parent="gU8vJlUViDX8La7rh_Iv-8">
          <mxGeometry y="-40" width="200" height="200" as="geometry" />
        </mxCell>
        <mxCell id="gU8vJlUViDX8La7rh_Iv-10" value="&lt;div&gt;Estimation de la variance d&#39;un total -&lt;/div&gt;&lt;div&gt;Plan à plusieurs degrés&lt;br&gt;&lt;/div&gt;" style="text;html=1;align=center;verticalAlign=middle;whiteSpace=wrap;rounded=0;container=0;movable=1;resizable=1;rotatable=1;deletable=1;editable=1;locked=0;connectable=1;" vertex="1" parent="gU8vJlUViDX8La7rh_Iv-8">
          <mxGeometry x="22.5" y="100" width="155" height="48" as="geometry" />
        </mxCell>
        <mxCell id="gU8vJlUViDX8La7rh_Iv-11" value="$$\hat{\mathbb{V}}(\hat{t}_{y,\text{HT}}) = Q(\hat{u}_1, ..., \hat{u}_{n_\text{UP}}) + $$" style="text;html=1;align=center;verticalAlign=middle;whiteSpace=wrap;rounded=0;" vertex="1" parent="gU8vJlUViDX8La7rh_Iv-8">
          <mxGeometry x="70" width="60" height="30" as="geometry" />
        </mxCell>
        <mxCell id="gU8vJlUViDX8La7rh_Iv-12" value="$$\sum_{u} (\frac{1}{\pi_u^2} - q_u) \hat{\mathbb{V}}(\hat{t}_u) $$" style="text;html=1;align=center;verticalAlign=middle;whiteSpace=wrap;rounded=0;" vertex="1" parent="gU8vJlUViDX8La7rh_Iv-8">
          <mxGeometry x="70" y="45" width="60" height="30" as="geometry" />
        </mxCell>
        <mxCell id="gU8vJlUViDX8La7rh_Iv-13" value="" style="group;movable=1;resizable=1;rotatable=1;deletable=1;editable=1;locked=0;connectable=1;" vertex="1" connectable="0" parent="gU8vJlUViDX8La7rh_Iv-1">
          <mxGeometry x="-120" y="270" width="200" height="130" as="geometry" />
        </mxCell>
        <mxCell id="gU8vJlUViDX8La7rh_Iv-14" value="" style="rounded=1;whiteSpace=wrap;html=1;movable=1;resizable=1;rotatable=1;deletable=1;editable=1;locked=0;connectable=1;" vertex="1" parent="gU8vJlUViDX8La7rh_Iv-13">
          <mxGeometry y="-70" width="200" height="200" as="geometry" />
        </mxCell>
        <mxCell id="gU8vJlUViDX8La7rh_Iv-15" value="&lt;div&gt;Estimation de la variance d&#39;une fonction d&#39;un total - Plan indirect&lt;br&gt;&lt;/div&gt;" style="text;html=1;align=center;verticalAlign=middle;whiteSpace=wrap;rounded=0;container=0;movable=1;resizable=1;rotatable=1;deletable=1;editable=1;locked=0;connectable=1;" vertex="1" parent="gU8vJlUViDX8La7rh_Iv-13">
          <mxGeometry x="19.047619047619047" y="90" width="161.9047619047619" height="24" as="geometry" />
        </mxCell>
        <mxCell id="gU8vJlUViDX8La7rh_Iv-16" value="$$\hat{\mathbb{V}}(\underbrace{\hat{t}_{y,\text{HT}}}_{\text{Pop. fille}}) \approx \hat{\mathbb{V}}(\underbrace{\hat{t}_{z,\text{HT}}}_{\text{Pop. mère}})$$" style="text;html=1;align=center;verticalAlign=middle;whiteSpace=wrap;rounded=0;fontSize=15;" vertex="1" parent="gU8vJlUViDX8La7rh_Iv-13">
          <mxGeometry x="20" y="-60" width="160.95" height="100" as="geometry" />
        </mxCell>
        <mxCell id="gU8vJlUViDX8La7rh_Iv-17" value="" style="endArrow=classic;html=1;rounded=0;exitX=1;exitY=0.5;exitDx=0;exitDy=0;entryX=0;entryY=0.5;entryDx=0;entryDy=0;dashed=1;dashPattern=8 8;textOpacity=30;" edge="1" parent="gU8vJlUViDX8La7rh_Iv-1" source="gU8vJlUViDX8La7rh_Iv-3" target="gU8vJlUViDX8La7rh_Iv-25">
          <mxGeometry width="50" height="50" relative="1" as="geometry">
            <mxPoint x="260" y="260" as="sourcePoint" />
            <mxPoint x="310" y="210" as="targetPoint" />
          </mxGeometry>
        </mxCell>
        <mxCell id="gU8vJlUViDX8La7rh_Iv-18" value="" style="endArrow=classic;html=1;rounded=0;exitX=0;exitY=0.5;exitDx=0;exitDy=0;entryX=1;entryY=0.5;entryDx=0;entryDy=0;dashed=1;dashPattern=8 8;" edge="1" parent="gU8vJlUViDX8La7rh_Iv-1" source="gU8vJlUViDX8La7rh_Iv-3" target="gU8vJlUViDX8La7rh_Iv-14">
          <mxGeometry width="50" height="50" relative="1" as="geometry">
            <mxPoint x="410" y="310" as="sourcePoint" />
            <mxPoint x="490" y="310" as="targetPoint" />
          </mxGeometry>
        </mxCell>
        <mxCell id="gU8vJlUViDX8La7rh_Iv-19" value="Formule de Rao" style="text;html=1;align=center;verticalAlign=middle;whiteSpace=wrap;rounded=0;rotation=0;" vertex="1" parent="gU8vJlUViDX8La7rh_Iv-1">
          <mxGeometry x="490" y="130" width="100" height="30" as="geometry" />
        </mxCell>
        <mxCell id="gU8vJlUViDX8La7rh_Iv-20" value="&lt;div&gt;Transformation&lt;br&gt;&lt;/div&gt;" style="text;html=1;align=center;verticalAlign=middle;whiteSpace=wrap;rounded=0;" vertex="1" parent="gU8vJlUViDX8La7rh_Iv-1">
          <mxGeometry x="110" y="270" width="60" height="30" as="geometry" />
        </mxCell>
        <mxCell id="gU8vJlUViDX8La7rh_Iv-21" value="de la var d&#39;intérêt" style="text;html=1;align=center;verticalAlign=middle;whiteSpace=wrap;rounded=0;" vertex="1" parent="gU8vJlUViDX8La7rh_Iv-1">
          <mxGeometry x="110" y="300" width="60" height="30" as="geometry" />
        </mxCell>
        <mxCell id="gU8vJlUViDX8La7rh_Iv-22" value="" style="endArrow=classic;html=1;rounded=0;exitX=0.5;exitY=0;exitDx=0;exitDy=0;entryX=0;entryY=0.5;entryDx=0;entryDy=0;dashed=1;dashPattern=8 8;" edge="1" parent="gU8vJlUViDX8La7rh_Iv-1" source="gU8vJlUViDX8La7rh_Iv-3" target="gU8vJlUViDX8La7rh_Iv-9">
          <mxGeometry width="50" height="50" relative="1" as="geometry">
            <mxPoint x="610" y="250" as="sourcePoint" />
            <mxPoint x="660" y="200" as="targetPoint" />
            <Array as="points">
              <mxPoint x="300" y="160" />
              <mxPoint x="800" y="160" />
              <mxPoint x="800" y="300" />
            </Array>
          </mxGeometry>
        </mxCell>
        <mxCell id="gU8vJlUViDX8La7rh_Iv-23" value="" style="group;" vertex="1" connectable="0" parent="gU8vJlUViDX8La7rh_Iv-1">
          <mxGeometry x="400" y="220" width="320" height="180" as="geometry" />
        </mxCell>
        <mxCell id="gU8vJlUViDX8La7rh_Iv-24" value="" style="group;movable=1;resizable=1;rotatable=1;deletable=1;editable=1;locked=0;connectable=1;" vertex="1" connectable="0" parent="gU8vJlUViDX8La7rh_Iv-23">
          <mxGeometry x="120" y="50" width="200" height="130" as="geometry" />
        </mxCell>
        <mxCell id="gU8vJlUViDX8La7rh_Iv-25" value="" style="rounded=1;whiteSpace=wrap;html=1;movable=1;resizable=1;rotatable=1;deletable=1;editable=1;locked=0;connectable=1;textOpacity=20;" vertex="1" parent="gU8vJlUViDX8La7rh_Iv-24">
          <mxGeometry y="-70" width="200" height="200" as="geometry" />
        </mxCell>
        <mxCell id="gU8vJlUViDX8La7rh_Iv-26" value="&lt;div&gt;Estimation de la variance d&#39;une fonction d&#39;un total - Plan à un degré&lt;br&gt;&lt;/div&gt;" style="text;html=1;align=center;verticalAlign=middle;whiteSpace=wrap;rounded=0;container=0;movable=1;resizable=1;rotatable=1;deletable=1;editable=1;locked=0;connectable=1;" vertex="1" parent="gU8vJlUViDX8La7rh_Iv-24">
          <mxGeometry x="19.047619047619047" y="80" width="161.9047619047619" height="24" as="geometry" />
        </mxCell>
        <mxCell id="gU8vJlUViDX8La7rh_Iv-27" value="$$\hat{\mathbb{V}}(f(\hat{t}_{y,\text{HT}})) \approx \hat{\mathbb{V}}(\hat{t}_{u,\text{HT}})$$" style="text;html=1;align=center;verticalAlign=middle;whiteSpace=wrap;rounded=0;fontSize=15;" vertex="1" parent="gU8vJlUViDX8La7rh_Iv-23">
          <mxGeometry x="140" width="160.95" height="100" as="geometry" />
        </mxCell>
        <mxCell id="gU8vJlUViDX8La7rh_Iv-28" value="Linéarisation" style="text;html=1;align=center;verticalAlign=middle;whiteSpace=wrap;rounded=0;" vertex="1" parent="gU8vJlUViDX8La7rh_Iv-23">
          <mxGeometry y="50" width="120" height="30" as="geometry" />
        </mxCell>
        <mxCell id="gU8vJlUViDX8La7rh_Iv-29" value="" style="group;textOpacity=10;" vertex="1" connectable="0" parent="gU8vJlUViDX8La7rh_Iv-1">
          <mxGeometry x="-440" y="130" width="740" height="280" as="geometry" />
        </mxCell>
        <mxCell id="gU8vJlUViDX8La7rh_Iv-30" value="" style="rounded=1;whiteSpace=wrap;html=1;movable=1;resizable=1;rotatable=1;deletable=1;editable=1;locked=0;connectable=1;" vertex="1" parent="gU8vJlUViDX8La7rh_Iv-29">
          <mxGeometry y="70" width="200" height="200" as="geometry" />
        </mxCell>
        <mxCell id="gU8vJlUViDX8La7rh_Iv-31" value="" style="group;movable=1;resizable=1;rotatable=1;deletable=1;editable=1;locked=0;connectable=1;" vertex="1" connectable="0" parent="gU8vJlUViDX8La7rh_Iv-29">
          <mxGeometry x="20" y="200" width="160" height="80" as="geometry" />
        </mxCell>
        <mxCell id="gU8vJlUViDX8La7rh_Iv-32" value="Estimation de la variance d&#39;un total calé - Plan à un degré" style="text;html=1;align=center;verticalAlign=middle;whiteSpace=wrap;rounded=0;container=0;movable=1;resizable=1;rotatable=1;deletable=1;editable=1;locked=0;connectable=1;" vertex="1" parent="gU8vJlUViDX8La7rh_Iv-31">
          <mxGeometry x="11.33" y="28" width="146.67" height="24" as="geometry" />
        </mxCell>
        <mxCell id="gU8vJlUViDX8La7rh_Iv-33" style="edgeStyle=orthogonalEdgeStyle;rounded=0;orthogonalLoop=1;jettySize=auto;html=1;entryX=1;entryY=0.5;entryDx=0;entryDy=0;dashed=1;dashPattern=8 8;" edge="1" parent="gU8vJlUViDX8La7rh_Iv-29" target="gU8vJlUViDX8La7rh_Iv-30">
          <mxGeometry relative="1" as="geometry">
            <mxPoint x="740" y="70" as="sourcePoint" />
            <Array as="points">
              <mxPoint x="740" y="30" />
              <mxPoint x="240" y="30" />
              <mxPoint x="240" y="170" />
            </Array>
          </mxGeometry>
        </mxCell>
        <mxCell id="gU8vJlUViDX8La7rh_Iv-34" value="Résidus de la régression" style="text;html=1;align=center;verticalAlign=middle;whiteSpace=wrap;rounded=0;direction=south;rotation=0;" vertex="1" parent="gU8vJlUViDX8La7rh_Iv-29">
          <mxGeometry x="430" width="190" height="30" as="geometry" />
        </mxCell>
        <mxCell id="gU8vJlUViDX8La7rh_Iv-35" value="$$\hat{\mathbb{V}}(f(\hat{t}_{y,\text{HT}})) \approx \hat{\mathbb{V}}(\hat{t}_{u,\text{HT}})$$" style="text;html=1;align=center;verticalAlign=middle;whiteSpace=wrap;rounded=0;fontSize=15;" vertex="1" parent="gU8vJlUViDX8La7rh_Iv-29">
          <mxGeometry x="19.999999999999943" y="100" width="160.95" height="100" as="geometry" />
        </mxCell>
      </root>
    </mxGraphModel>
  </diagram>
</mxfile>
